<svg id="svg" version="1.1" xmlns="http://www.w3.org/2000/svg" xmlns:xlink="http://www.w3.org/1999/xlink" width="400" height="400" viewBox="0, 0, 400,400"><g id="svgg"><path id="path0" d="M182.600 16.646 C 175.778 17.338,174.181 17.542,171.880 18.010 C 170.824 18.224,169.375 18.400,168.660 18.400 C 167.945 18.400,167.189 18.562,166.980 18.759 C 166.771 18.956,165.880 19.215,165.000 19.334 C 164.120 19.453,162.451 19.675,161.292 19.827 C 160.132 19.979,159.086 20.260,158.968 20.452 C 158.850 20.643,158.054 20.800,157.200 20.800 C 156.346 20.800,155.536 20.980,155.400 21.200 C 155.264 21.420,154.544 21.600,153.800 21.600 C 153.056 21.600,152.336 21.780,152.200 22.000 C 152.064 22.220,151.620 22.400,151.213 22.400 C 150.530 22.400,139.225 25.978,137.400 26.771 C 136.960 26.963,135.970 27.336,135.200 27.600 C 133.507 28.182,132.040 28.771,131.105 29.247 C 130.723 29.441,130.236 29.600,130.023 29.600 C 129.254 29.600,114.373 36.789,110.400 39.081 C 109.410 39.652,107.610 40.663,106.400 41.328 C 101.756 43.880,89.490 52.409,84.841 56.320 C 83.873 57.134,82.847 57.939,82.560 58.109 C 82.272 58.279,81.210 59.179,80.198 60.109 C 79.186 61.039,77.643 62.430,76.769 63.200 C 74.742 64.985,65.022 74.699,63.272 76.689 C 62.541 77.520,61.056 79.172,59.972 80.360 C 58.887 81.547,57.998 82.627,57.997 82.760 C 57.995 82.892,57.403 83.630,56.682 84.400 C 55.961 85.170,54.930 86.430,54.391 87.200 C 53.852 87.970,53.196 88.870,52.932 89.200 C 50.193 92.626,43.202 102.988,41.328 106.400 C 40.663 107.610,39.652 109.410,39.081 110.400 C 37.068 113.890,30.000 128.407,30.000 129.050 C 30.000 129.176,29.712 129.936,29.359 130.740 C 28.297 133.162,28.075 133.732,27.545 135.400 C 27.265 136.280,26.893 137.171,26.718 137.380 C 26.543 137.589,26.400 138.086,26.400 138.485 C 26.400 138.884,26.222 139.523,26.004 139.905 C 25.402 140.964,22.400 150.386,22.400 151.220 C 22.400 151.623,22.220 152.064,22.000 152.200 C 21.780 152.336,21.600 153.056,21.600 153.800 C 21.600 154.544,21.458 155.241,21.284 155.348 C 21.110 155.456,20.922 156.223,20.866 157.053 C 20.810 157.882,20.612 158.750,20.427 158.981 C 20.104 159.383,19.993 159.987,19.373 164.708 C 19.221 165.868,18.940 166.914,18.748 167.032 C 18.557 167.150,18.396 167.912,18.390 168.724 C 18.385 169.536,18.208 170.946,17.997 171.859 C 17.536 173.858,17.399 175.013,16.571 183.917 C 16.217 187.721,16.028 191.096,16.152 191.418 C 16.347 191.928,23.714 191.990,73.688 191.901 L 131.000 191.800 131.129 190.400 C 131.199 189.630,131.424 188.829,131.629 188.620 C 131.833 188.411,132.000 187.387,132.000 186.344 C 132.000 185.301,132.180 184.336,132.400 184.200 C 132.620 184.064,132.800 183.490,132.800 182.924 C 132.800 179.144,141.101 161.591,144.398 158.400 C 144.512 158.290,145.134 157.480,145.782 156.600 C 147.305 154.531,154.531 147.305,156.600 145.782 C 157.480 145.134,158.290 144.514,158.400 144.402 C 160.191 142.590,172.095 136.066,175.800 134.866 C 176.680 134.580,177.760 134.204,178.200 134.029 C 180.072 133.285,181.927 132.800,182.905 132.800 C 183.481 132.800,184.064 132.620,184.200 132.400 C 184.336 132.180,185.168 132.000,186.050 132.000 C 186.931 132.000,187.970 131.830,188.357 131.623 C 190.472 130.491,209.528 130.491,211.643 131.623 C 212.030 131.830,213.069 132.000,213.950 132.000 C 214.832 132.000,215.664 132.180,215.800 132.400 C 215.936 132.620,216.510 132.800,217.076 132.800 C 220.856 132.800,238.409 141.101,241.600 144.398 C 241.710 144.512,242.520 145.134,243.400 145.782 C 245.469 147.305,252.695 154.531,254.218 156.600 C 254.866 157.480,255.486 158.290,255.598 158.400 C 257.431 160.212,264.800 173.635,264.800 175.161 C 264.800 175.549,264.922 175.989,265.071 176.138 C 265.560 176.627,267.179 181.776,267.190 182.876 C 267.195 183.468,267.380 184.064,267.600 184.200 C 267.820 184.336,268.000 185.301,268.000 186.344 C 268.000 187.387,268.167 188.411,268.371 188.620 C 268.576 188.829,268.801 189.630,268.871 190.400 L 269.000 191.800 326.312 191.901 C 377.196 191.991,383.650 191.935,383.857 191.397 C 384.102 190.757,383.377 181.607,382.636 176.000 C 382.342 173.769,381.633 169.339,381.357 168.000 C 380.815 165.374,380.368 162.828,380.143 161.092 C 380.008 160.042,379.740 159.086,379.548 158.968 C 379.357 158.850,379.200 158.054,379.200 157.200 C 379.200 156.346,379.020 155.536,378.800 155.400 C 378.580 155.264,378.400 154.544,378.400 153.800 C 378.400 153.056,378.220 152.336,378.000 152.200 C 377.780 152.064,377.600 151.623,377.600 151.220 C 377.600 150.386,374.598 140.964,373.996 139.905 C 373.778 139.523,373.600 138.884,373.600 138.485 C 373.600 138.086,373.457 137.589,373.282 137.380 C 373.107 137.171,372.735 136.280,372.455 135.400 C 371.925 133.732,371.703 133.162,370.641 130.740 C 370.288 129.936,370.000 129.176,370.000 129.050 C 370.000 128.419,362.930 113.903,360.916 110.400 C 360.347 109.410,359.347 107.634,358.694 106.453 C 356.714 102.872,349.824 92.647,347.068 89.200 C 346.804 88.870,346.148 87.970,345.609 87.200 C 345.070 86.430,344.039 85.170,343.318 84.400 C 342.597 83.630,342.005 82.892,342.003 82.760 C 342.002 82.627,341.145 81.584,340.100 80.441 C 339.055 79.298,337.390 77.459,336.400 76.355 C 334.202 73.903,325.396 65.100,323.314 63.272 C 322.481 62.541,320.828 61.056,319.640 59.972 C 318.453 58.887,317.373 57.998,317.240 57.997 C 317.108 57.995,316.370 57.403,315.600 56.682 C 314.830 55.961,313.570 54.930,312.800 54.391 C 312.030 53.852,311.130 53.196,310.800 52.932 C 307.885 50.602,298.251 44.008,295.410 42.399 C 293.712 41.437,292.011 40.465,289.600 39.078 C 285.586 36.769,270.743 29.600,269.977 29.600 C 269.764 29.600,269.277 29.441,268.895 29.247 C 267.960 28.771,266.493 28.182,264.800 27.600 C 264.030 27.336,263.040 26.963,262.600 26.771 C 260.775 25.978,249.470 22.400,248.787 22.400 C 248.380 22.400,247.936 22.220,247.800 22.000 C 247.664 21.780,246.944 21.600,246.200 21.600 C 245.456 21.600,244.736 21.420,244.600 21.200 C 244.464 20.980,243.679 20.800,242.856 20.800 C 242.033 20.800,241.189 20.638,240.980 20.441 C 240.771 20.244,239.880 19.985,239.000 19.866 C 238.120 19.747,236.451 19.525,235.292 19.373 C 234.132 19.221,233.086 18.940,232.968 18.748 C 232.850 18.557,232.142 18.400,231.396 18.400 C 230.650 18.400,229.176 18.224,228.120 18.010 C 218.949 16.144,194.695 15.417,182.600 16.646 M191.800 146.627 C 142.971 154.585,129.255 217.087,170.200 245.059 C 200.026 265.436,242.291 249.605,252.053 214.400 C 262.469 176.836,230.067 140.390,191.800 146.627 M206.093 146.830 C 256.192 154.232,271.030 216.696,229.346 244.718 C 194.528 268.124,146.400 242.177,146.400 200.000 C 146.400 168.469,175.730 142.344,206.093 146.830 M194.800 164.638 C 183.857 165.943,172.276 174.599,167.690 184.900 C 165.168 190.564,164.600 193.341,164.600 200.000 C 164.600 206.451,165.094 209.044,167.247 213.896 C 167.661 214.828,168.000 215.686,168.000 215.803 C 168.000 217.382,173.590 224.366,177.581 227.771 C 186.779 235.622,202.042 237.801,213.600 232.914 C 219.411 230.457,223.488 227.438,227.771 222.419 C 228.893 221.105,232.000 216.244,232.000 215.803 C 232.000 215.686,232.339 214.828,232.753 213.896 C 234.906 209.044,235.400 206.451,235.400 200.000 C 235.400 193.256,234.908 190.879,232.257 184.800 C 228.550 176.303,219.918 168.803,210.600 165.982 C 209.720 165.716,208.562 165.329,208.026 165.124 C 206.982 164.723,197.123 164.361,194.800 164.638 M209.573 166.215 C 235.352 173.677,243.733 205.898,224.815 224.815 C 202.746 246.884,164.959 231.194,165.051 200.000 C 165.121 176.473,187.181 159.733,209.573 166.215 M194.900 174.016 C 174.497 177.683,166.585 203.790,181.379 218.629 C 197.967 235.267,226.147 223.552,226.191 200.000 C 226.222 183.311,211.447 171.042,194.900 174.016 M207.733 175.272 C 227.423 181.714,232.248 207.520,216.127 220.172 C 198.994 233.620,174.251 221.701,174.251 200.000 C 174.251 182.554,191.362 169.916,207.733 175.272 M16.130 208.238 C 15.552 209.745,16.695 222.199,18.219 231.000 C 31.545 307.935,91.233 367.950,168.000 381.601 C 177.611 383.310,191.020 384.512,195.000 384.021 C 196.498 383.836,195.493 383.700,191.000 383.478 C 187.700 383.315,182.750 382.926,180.000 382.614 C 177.250 382.302,174.010 381.937,172.800 381.803 C 171.590 381.669,169.970 381.403,169.200 381.213 C 168.430 381.022,166.540 380.654,165.000 380.394 C 162.108 379.907,152.965 377.806,151.200 377.223 C 150.650 377.041,149.390 376.664,148.400 376.385 C 142.424 374.698,132.298 371.075,127.765 369.001 C 126.561 368.450,125.483 368.000,125.369 368.000 C 125.083 368.000,113.895 362.407,110.980 360.807 C 83.643 345.798,59.371 322.388,42.503 294.762 C 39.759 290.269,33.559 278.493,32.413 275.600 C 32.108 274.830,31.456 273.300,30.964 272.200 C 26.564 262.359,21.465 245.756,19.602 235.200 C 19.350 233.770,19.055 232.240,18.948 231.800 C 17.778 227.020,16.175 208.790,16.884 208.340 C 17.524 207.933,129.624 207.900,130.261 208.306 C 130.514 208.468,130.847 209.500,131.000 210.600 C 132.419 220.787,137.508 232.991,143.928 241.600 C 146.874 245.551,154.181 252.855,158.240 255.908 C 188.951 279.003,232.484 272.623,256.057 241.573 C 262.455 233.146,267.562 220.924,269.000 210.600 C 269.153 209.500,269.486 208.468,269.739 208.306 C 270.376 207.900,382.476 207.933,383.116 208.340 C 383.825 208.790,382.222 227.020,381.052 231.800 C 380.945 232.240,380.650 233.770,380.398 235.200 C 378.525 245.812,373.249 262.939,368.965 272.312 C 368.434 273.473,368.000 274.518,368.000 274.634 C 368.000 274.903,362.290 286.302,360.704 289.200 C 344.911 318.052,318.230 344.731,289.200 360.698 C 286.368 362.256,274.909 368.000,274.634 368.000 C 274.518 368.000,273.383 368.476,272.112 369.058 C 267.813 371.024,257.353 374.761,251.600 376.385 C 250.610 376.664,249.350 377.041,248.800 377.223 C 247.035 377.806,237.892 379.907,235.000 380.394 C 233.460 380.654,231.570 381.022,230.800 381.213 C 230.030 381.403,228.410 381.669,227.200 381.803 C 225.990 381.937,222.750 382.302,220.000 382.614 C 217.250 382.926,212.300 383.315,209.000 383.478 C 204.507 383.700,203.502 383.836,205.000 384.021 C 208.980 384.512,222.389 383.310,232.000 381.601 C 299.125 369.664,353.611 322.367,375.309 257.200 C 380.083 242.860,383.703 223.702,383.772 212.400 L 383.800 207.800 326.402 207.800 L 269.003 207.800 268.318 211.200 C 266.654 219.450,265.172 224.029,262.167 230.200 C 239.979 275.760,178.088 282.766,146.068 243.343 C 139.039 234.689,134.133 223.931,131.991 212.478 C 131.567 210.211,131.115 208.186,130.987 207.978 C 130.526 207.232,16.417 207.491,16.130 208.238 M198.700 384.289 C 199.415 384.378,200.585 384.378,201.300 384.289 C 202.015 384.201,201.430 384.128,200.000 384.128 C 198.570 384.128,197.985 384.201,198.700 384.289 " stroke="none" fill="#6b6b6b" fill-rule="evenodd"></path><path id="path1" d="M173.854 0.631 C 173.003 0.939,172.137 1.084,171.928 0.955 C 171.453 0.662,162.849 1.928,161.905 2.430 C 161.523 2.634,160.679 2.800,160.029 2.800 C 159.379 2.800,158.728 2.992,158.583 3.227 C 158.438 3.462,158.085 3.565,157.798 3.455 C 157.293 3.261,149.008 5.167,148.200 5.662 C 147.980 5.797,146.992 6.042,146.005 6.205 C 145.018 6.369,143.488 6.759,142.605 7.072 C 141.722 7.386,139.654 8.005,138.009 8.448 C 136.364 8.890,134.834 9.397,134.609 9.574 C 134.384 9.751,133.480 10.112,132.600 10.376 C 130.958 10.868,129.528 11.425,128.305 12.047 C 127.923 12.241,127.344 12.400,127.018 12.400 C 126.691 12.400,125.783 12.760,125.000 13.200 C 124.217 13.640,123.243 14.000,122.837 14.000 C 122.430 14.000,121.883 14.258,121.621 14.574 C 121.359 14.890,120.619 15.264,119.977 15.405 C 119.335 15.546,118.706 15.828,118.581 16.031 C 118.455 16.234,117.913 16.400,117.376 16.400 C 116.839 16.400,116.400 16.568,116.400 16.773 C 116.400 16.978,115.995 17.268,115.500 17.417 C 114.094 17.841,107.016 21.344,106.867 21.690 C 106.793 21.861,106.388 22.000,105.967 22.000 C 105.545 22.000,105.200 22.138,105.200 22.306 C 105.200 22.474,104.525 22.922,103.700 23.301 C 102.115 24.029,99.272 25.644,97.600 26.765 C 97.050 27.134,95.778 27.844,94.774 28.343 C 93.769 28.842,92.329 29.778,91.574 30.424 C 90.818 31.070,89.975 31.599,89.700 31.599 C 89.425 31.600,89.200 31.750,89.200 31.932 C 89.200 32.115,88.705 32.520,88.100 32.832 C 87.495 33.145,86.550 33.813,86.000 34.319 C 85.450 34.824,84.370 35.540,83.600 35.910 C 82.053 36.654,81.105 37.347,79.786 38.700 C 79.303 39.195,78.704 39.600,78.454 39.600 C 78.204 39.600,78.000 39.750,78.000 39.932 C 78.000 40.115,77.511 40.520,76.912 40.832 C 75.798 41.414,74.196 42.704,72.605 44.300 C 72.112 44.795,71.592 45.200,71.449 45.200 C 71.307 45.200,70.248 46.098,69.095 47.196 C 67.943 48.294,66.847 49.194,66.659 49.196 C 66.204 49.201,49.201 66.189,49.196 66.644 C 49.194 66.840,48.294 67.943,47.196 69.095 C 46.098 70.248,45.200 71.307,45.200 71.449 C 45.200 71.592,44.795 72.112,44.300 72.605 C 42.704 74.196,41.414 75.798,40.832 76.912 C 40.520 77.511,40.115 78.000,39.932 78.000 C 39.750 78.000,39.600 78.204,39.600 78.454 C 39.600 78.704,39.195 79.303,38.700 79.786 C 37.347 81.105,36.654 82.053,35.910 83.600 C 35.540 84.370,34.779 85.487,34.219 86.083 C 33.658 86.678,33.200 87.325,33.200 87.521 C 33.200 87.716,32.840 88.202,32.400 88.600 C 31.960 88.998,31.600 89.521,31.599 89.762 C 31.599 90.003,31.082 90.804,30.450 91.543 C 29.819 92.281,28.947 93.541,28.513 94.343 C 28.079 95.144,27.335 96.475,26.862 97.300 C 26.388 98.125,25.612 99.475,25.138 100.300 C 24.665 101.125,23.900 102.520,23.438 103.400 C 22.977 104.280,22.502 105.090,22.382 105.200 C 22.049 105.506,17.724 114.478,17.417 115.500 C 17.268 115.995,16.978 116.400,16.773 116.400 C 16.568 116.400,16.400 116.839,16.400 117.376 C 16.400 117.913,16.234 118.455,16.031 118.581 C 15.828 118.706,15.546 119.335,15.405 119.977 C 15.264 120.619,14.890 121.359,14.574 121.621 C 14.258 121.883,14.000 122.430,14.000 122.837 C 14.000 123.243,13.640 124.217,13.200 125.000 C 12.760 125.783,12.400 126.869,12.400 127.412 C 12.400 127.955,12.220 128.400,12.000 128.400 C 11.780 128.400,11.600 128.749,11.600 129.176 C 11.600 129.603,11.443 130.050,11.252 130.168 C 11.060 130.286,10.792 130.941,10.655 131.624 C 10.519 132.306,10.140 133.434,9.813 134.132 C 9.134 135.579,7.492 140.960,6.556 144.800 C 6.208 146.230,5.779 147.760,5.602 148.200 C 5.106 149.440,3.512 155.960,3.416 157.143 C 3.369 157.724,3.120 158.710,2.862 159.334 C 2.605 159.957,2.492 160.625,2.611 160.817 C 2.730 161.010,2.655 161.490,2.444 161.884 C 1.930 162.844,0.658 171.446,0.958 171.931 C 1.088 172.142,0.933 173.057,0.613 173.963 C -0.251 176.412,-0.251 223.588,0.613 226.037 C 0.933 226.943,1.088 227.858,0.958 228.069 C 0.658 228.554,1.930 237.156,2.444 238.116 C 2.655 238.510,2.719 239.008,2.587 239.221 C 2.455 239.435,2.626 240.170,2.967 240.854 C 3.308 241.538,3.509 242.224,3.413 242.379 C 3.229 242.677,5.244 251.118,5.662 251.800 C 5.797 252.020,6.042 253.008,6.205 253.995 C 6.369 254.982,6.759 256.512,7.072 257.395 C 7.386 258.278,8.005 260.346,8.448 261.991 C 8.890 263.636,9.397 265.166,9.574 265.391 C 9.751 265.616,10.112 266.520,10.376 267.400 C 10.868 269.042,11.425 270.472,12.047 271.695 C 12.241 272.077,12.400 272.580,12.400 272.814 C 12.400 273.048,12.760 273.984,13.200 274.894 C 13.640 275.805,14.000 276.854,14.000 277.226 C 14.000 277.598,14.258 278.117,14.574 278.379 C 14.890 278.641,15.264 279.381,15.405 280.023 C 15.546 280.665,15.828 281.294,16.031 281.419 C 16.234 281.545,16.400 282.087,16.400 282.624 C 16.400 283.161,16.566 283.600,16.769 283.600 C 16.972 283.600,17.357 284.275,17.625 285.100 C 17.892 285.925,18.446 287.078,18.856 287.662 C 19.265 288.246,19.600 288.892,19.600 289.098 C 19.600 289.637,23.352 296.929,24.354 298.335 C 24.819 298.989,25.200 299.721,25.200 299.962 C 25.200 300.203,25.359 300.400,25.553 300.400 C 25.748 300.400,26.010 300.715,26.136 301.100 C 26.398 301.900,28.132 304.888,29.247 306.462 C 29.661 307.046,30.000 307.721,30.000 307.962 C 30.000 308.203,30.159 308.400,30.354 308.400 C 30.549 308.400,30.996 309.005,31.347 309.745 C 31.698 310.485,32.259 311.317,32.593 311.594 C 32.927 311.871,33.200 312.264,33.200 312.466 C 33.200 312.669,33.658 313.322,34.219 313.917 C 34.779 314.513,35.536 315.630,35.901 316.400 C 36.266 317.170,37.245 318.520,38.078 319.400 C 38.910 320.280,39.593 321.225,39.596 321.500 C 39.598 321.775,39.741 322.000,39.914 322.000 C 40.086 322.000,40.525 322.495,40.889 323.100 C 41.752 324.536,43.174 326.338,44.300 327.424 C 44.795 327.901,45.200 328.406,45.200 328.545 C 45.200 328.684,45.847 329.474,46.638 330.299 C 47.428 331.125,48.549 332.430,49.129 333.200 C 50.497 335.017,64.975 349.495,66.800 350.870 C 67.570 351.450,68.875 352.572,69.701 353.362 C 70.526 354.153,71.336 354.802,71.501 354.804 C 71.665 354.806,72.703 355.661,73.806 356.704 C 74.909 357.747,76.304 358.855,76.906 359.168 C 77.508 359.480,78.000 359.885,78.000 360.068 C 78.000 360.250,78.225 360.402,78.500 360.404 C 78.775 360.407,79.720 361.090,80.600 361.922 C 81.480 362.755,82.830 363.734,83.600 364.099 C 84.370 364.464,85.450 365.176,86.000 365.681 C 86.550 366.187,87.495 366.855,88.100 367.168 C 88.705 367.480,89.200 367.885,89.200 368.068 C 89.200 368.250,89.425 368.404,89.700 368.410 C 89.975 368.415,91.100 369.087,92.200 369.902 C 93.300 370.717,94.920 371.759,95.800 372.216 C 97.814 373.263,99.341 374.141,99.600 374.400 C 99.852 374.652,101.331 375.496,103.400 376.570 C 104.280 377.026,105.090 377.490,105.200 377.600 C 105.662 378.062,108.921 379.600,109.438 379.600 C 109.747 379.600,110.000 379.780,110.000 380.000 C 110.000 380.220,110.422 380.400,110.938 380.400 C 111.454 380.400,112.202 380.760,112.600 381.200 C 112.998 381.640,113.712 382.000,114.187 382.000 C 114.661 382.000,115.436 382.360,115.908 382.800 C 116.380 383.240,117.047 383.600,117.389 383.600 C 117.731 383.600,118.323 383.767,118.705 383.971 C 119.087 384.176,120.210 384.692,121.200 385.119 C 122.190 385.546,123.853 386.279,124.896 386.748 C 125.938 387.217,127.153 387.600,127.596 387.600 C 128.038 387.600,128.400 387.780,128.400 388.000 C 128.400 388.220,128.749 388.400,129.176 388.400 C 129.603 388.400,130.050 388.557,130.168 388.748 C 130.286 388.940,130.941 389.208,131.624 389.345 C 132.306 389.481,133.434 389.860,134.132 390.187 C 135.915 391.023,142.305 392.894,144.103 393.107 C 144.929 393.204,145.705 393.445,145.826 393.642 C 145.948 393.839,146.476 394.000,147.000 394.000 C 147.524 394.000,148.049 394.156,148.168 394.347 C 148.286 394.539,149.151 394.814,150.091 394.959 C 151.031 395.104,152.639 395.497,153.665 395.832 C 154.690 396.167,156.130 396.493,156.865 396.557 C 157.599 396.621,158.710 396.883,159.334 397.140 C 159.957 397.396,160.625 397.508,160.817 397.389 C 161.010 397.270,161.490 397.349,161.884 397.565 C 162.740 398.034,171.539 399.285,171.996 399.003 C 172.171 398.894,173.057 399.067,173.963 399.387 C 176.412 400.251,223.588 400.251,226.037 399.387 C 226.943 399.067,227.829 398.894,228.004 399.003 C 228.461 399.285,237.260 398.034,238.116 397.565 C 238.510 397.349,238.990 397.270,239.183 397.389 C 239.375 397.508,240.043 397.396,240.666 397.140 C 241.290 396.883,242.401 396.621,243.135 396.557 C 243.870 396.493,245.310 396.167,246.335 395.832 C 247.361 395.497,248.969 395.104,249.909 394.959 C 250.849 394.814,251.714 394.539,251.832 394.347 C 251.951 394.156,252.476 394.000,253.000 394.000 C 253.524 394.000,254.064 393.820,254.200 393.600 C 254.336 393.380,254.922 393.200,255.503 393.200 C 256.559 393.200,263.477 391.153,265.868 390.134 C 266.566 389.836,267.694 389.481,268.376 389.345 C 269.059 389.208,269.714 388.940,269.832 388.748 C 269.950 388.557,270.397 388.400,270.824 388.400 C 271.251 388.400,271.600 388.220,271.600 388.000 C 271.600 387.780,271.962 387.600,272.404 387.600 C 272.847 387.600,274.062 387.217,275.104 386.748 C 276.147 386.279,277.810 385.546,278.800 385.119 C 279.790 384.692,280.913 384.176,281.295 383.971 C 281.677 383.767,282.352 383.600,282.795 383.600 C 283.238 383.600,283.600 383.427,283.600 383.216 C 283.600 383.005,284.317 382.617,285.194 382.355 C 286.070 382.092,287.088 381.545,287.456 381.139 C 287.823 380.732,288.546 380.400,289.062 380.400 C 289.578 380.400,290.000 380.220,290.000 380.000 C 290.000 379.780,290.182 379.600,290.404 379.600 C 290.859 379.600,294.491 377.966,294.800 377.622 C 294.910 377.500,295.720 377.026,296.600 376.570 C 298.669 375.496,300.148 374.652,300.400 374.400 C 300.695 374.105,302.351 373.170,304.467 372.103 C 305.494 371.585,306.551 370.900,306.816 370.581 C 307.081 370.261,307.546 370.000,307.849 370.000 C 308.152 370.000,308.400 369.850,308.400 369.668 C 308.400 369.485,308.895 369.080,309.500 368.768 C 310.105 368.455,310.949 367.885,311.375 367.500 C 311.802 367.115,312.305 366.800,312.493 366.800 C 312.681 366.800,313.322 366.342,313.917 365.781 C 314.513 365.221,315.630 364.464,316.400 364.099 C 317.170 363.734,318.520 362.755,319.400 361.922 C 320.280 361.090,321.225 360.407,321.500 360.404 C 321.775 360.402,322.000 360.250,322.000 360.068 C 322.000 359.885,322.492 359.480,323.094 359.168 C 323.696 358.855,325.091 357.747,326.194 356.704 C 327.297 355.661,328.335 354.806,328.499 354.804 C 328.664 354.802,329.474 354.153,330.299 353.362 C 331.125 352.572,332.430 351.448,333.200 350.866 C 335.021 349.489,349.489 335.021,350.866 333.200 C 351.448 332.430,352.572 331.125,353.362 330.299 C 354.153 329.474,354.802 328.664,354.804 328.499 C 354.806 328.335,355.661 327.297,356.704 326.194 C 357.747 325.091,358.855 323.696,359.168 323.094 C 359.480 322.492,359.885 322.000,360.068 322.000 C 360.250 322.000,360.402 321.775,360.404 321.500 C 360.407 321.225,361.090 320.280,361.922 319.400 C 362.755 318.520,363.734 317.170,364.099 316.400 C 364.464 315.630,365.221 314.513,365.781 313.917 C 366.342 313.322,366.800 312.669,366.800 312.466 C 366.800 312.264,367.073 311.871,367.407 311.594 C 367.741 311.317,368.302 310.485,368.653 309.745 C 369.004 309.005,369.451 308.400,369.646 308.400 C 369.841 308.400,370.000 308.203,370.000 307.962 C 370.000 307.721,370.339 307.046,370.753 306.462 C 371.167 305.878,371.870 304.750,372.316 303.955 C 374.018 300.914,374.206 300.594,374.400 300.400 C 374.510 300.290,374.842 299.770,375.138 299.245 C 375.433 298.720,376.046 297.640,376.499 296.845 C 378.411 293.494,379.600 291.083,379.600 290.559 C 379.600 290.252,379.780 290.000,380.000 290.000 C 380.220 290.000,380.400 289.713,380.400 289.362 C 380.400 289.011,380.735 288.246,381.144 287.662 C 381.554 287.078,382.108 285.925,382.375 285.100 C 382.643 284.275,383.028 283.600,383.231 283.600 C 383.434 283.600,383.600 283.238,383.600 282.795 C 383.600 282.352,383.767 281.677,383.971 281.295 C 384.176 280.913,384.692 279.790,385.119 278.800 C 385.546 277.810,386.279 276.147,386.748 275.104 C 387.217 274.062,387.600 273.024,387.600 272.799 C 387.600 272.574,387.759 272.077,387.953 271.695 C 388.556 270.509,389.138 269.043,389.419 268.000 C 389.568 267.450,389.935 266.460,390.235 265.800 C 390.881 264.381,392.550 258.866,393.444 255.200 C 393.792 253.770,394.229 252.240,394.415 251.800 C 394.601 251.360,394.867 250.370,395.005 249.600 C 395.143 248.830,395.523 247.361,395.849 246.335 C 396.174 245.310,396.493 243.870,396.557 243.135 C 396.621 242.401,396.883 241.290,397.140 240.666 C 397.396 240.043,397.508 239.375,397.389 239.183 C 397.270 238.990,397.345 238.510,397.556 238.116 C 398.070 237.156,399.342 228.554,399.042 228.069 C 398.912 227.858,399.067 226.943,399.387 226.037 C 399.871 224.664,399.969 220.312,399.969 200.000 C 399.969 179.688,399.871 175.336,399.387 173.963 C 399.067 173.057,398.912 172.142,399.042 171.931 C 399.342 171.446,398.070 162.844,397.556 161.884 C 397.345 161.490,397.270 161.010,397.389 160.817 C 397.508 160.625,397.396 159.957,397.140 159.334 C 396.883 158.710,396.621 157.599,396.557 156.865 C 396.493 156.130,396.171 154.690,395.840 153.665 C 395.510 152.639,395.117 151.080,394.967 150.200 C 394.818 149.320,394.560 148.420,394.393 148.200 C 394.227 147.980,393.957 146.992,393.794 146.005 C 393.631 145.018,393.241 143.488,392.928 142.605 C 392.614 141.722,391.995 139.654,391.552 138.009 C 391.110 136.364,390.603 134.834,390.426 134.609 C 390.249 134.384,389.888 133.480,389.624 132.600 C 389.132 130.958,388.575 129.528,387.953 128.305 C 387.759 127.923,387.600 127.426,387.600 127.201 C 387.600 126.976,387.217 125.938,386.748 124.896 C 386.279 123.853,385.546 122.190,385.119 121.200 C 384.692 120.210,384.176 119.087,383.971 118.705 C 383.767 118.323,383.600 117.648,383.600 117.205 C 383.600 116.762,383.432 116.400,383.227 116.400 C 383.022 116.400,382.732 115.995,382.583 115.500 C 382.276 114.478,377.951 105.506,377.618 105.200 C 377.498 105.090,377.023 104.280,376.562 103.400 C 375.376 101.137,374.019 98.768,373.239 97.600 C 372.872 97.050,372.308 96.060,371.986 95.400 C 371.664 94.740,371.085 93.851,370.700 93.425 C 370.315 92.998,370.000 92.413,370.000 92.125 C 370.000 91.836,369.820 91.600,369.600 91.600 C 369.380 91.600,369.200 91.368,369.200 91.085 C 369.200 90.802,368.667 89.947,368.016 89.185 C 367.365 88.423,366.825 87.657,366.816 87.483 C 366.807 87.308,366.342 86.678,365.781 86.083 C 365.221 85.487,364.464 84.370,364.099 83.600 C 363.734 82.830,362.755 81.480,361.922 80.600 C 361.090 79.720,360.407 78.775,360.404 78.500 C 360.402 78.225,360.250 78.000,360.068 78.000 C 359.885 78.000,359.480 77.511,359.168 76.912 C 358.586 75.798,357.296 74.196,355.700 72.605 C 355.205 72.112,354.800 71.594,354.800 71.455 C 354.800 71.316,354.153 70.526,353.362 69.701 C 352.572 68.875,351.450 67.570,350.869 66.800 C 349.503 64.987,335.029 50.515,333.200 49.133 C 332.430 48.551,331.125 47.428,330.299 46.638 C 329.474 45.847,328.684 45.200,328.545 45.200 C 328.406 45.200,327.888 44.795,327.395 44.300 C 325.804 42.704,324.202 41.414,323.088 40.832 C 322.489 40.520,322.000 40.115,322.000 39.932 C 322.000 39.750,321.796 39.600,321.546 39.600 C 321.296 39.600,320.697 39.195,320.214 38.700 C 318.895 37.347,317.947 36.654,316.400 35.910 C 315.630 35.540,314.513 34.779,313.917 34.219 C 313.322 33.658,312.692 33.200,312.517 33.199 C 312.343 33.199,311.570 32.659,310.800 32.000 C 310.030 31.341,309.257 30.801,309.083 30.801 C 308.909 30.800,308.390 30.450,307.931 30.021 C 307.471 29.593,306.173 28.782,305.047 28.219 C 302.845 27.119,300.723 25.923,300.400 25.600 C 300.028 25.228,297.809 23.980,296.300 23.294 C 295.475 22.918,294.800 22.474,294.800 22.306 C 294.800 22.138,294.455 22.000,294.033 22.000 C 293.612 22.000,293.207 21.861,293.133 21.690 C 292.984 21.344,285.906 17.841,284.500 17.417 C 284.005 17.268,283.600 16.978,283.600 16.773 C 283.600 16.568,283.161 16.400,282.624 16.400 C 282.087 16.400,281.545 16.234,281.419 16.031 C 281.294 15.828,280.665 15.546,280.023 15.405 C 279.381 15.264,278.641 14.890,278.379 14.574 C 278.117 14.258,277.570 14.000,277.163 14.000 C 276.757 14.000,275.783 13.640,275.000 13.200 C 274.217 12.760,273.309 12.400,272.982 12.400 C 272.656 12.400,272.077 12.241,271.695 12.047 C 270.472 11.425,269.042 10.868,267.400 10.376 C 266.520 10.112,265.616 9.751,265.391 9.574 C 265.166 9.397,263.636 8.890,261.991 8.448 C 260.346 8.005,258.278 7.386,257.395 7.072 C 256.512 6.759,254.982 6.369,253.995 6.205 C 253.008 6.042,252.020 5.797,251.800 5.662 C 250.992 5.167,242.707 3.261,242.202 3.455 C 241.915 3.565,241.562 3.462,241.417 3.227 C 241.272 2.992,240.569 2.800,239.856 2.800 C 239.143 2.800,238.389 2.630,238.180 2.423 C 237.971 2.215,236.630 1.990,235.200 1.923 C 233.770 1.855,232.489 1.647,232.352 1.461 C 232.216 1.275,230.866 1.063,229.352 0.990 C 227.839 0.917,226.112 0.672,225.516 0.445 C 223.708 -0.244,175.796 -0.071,173.854 0.631 M216.800 16.613 C 224.337 17.358,225.809 17.539,228.120 18.010 C 229.176 18.224,230.650 18.400,231.396 18.400 C 232.142 18.400,232.850 18.557,232.968 18.748 C 233.086 18.940,234.132 19.221,235.292 19.373 C 236.451 19.525,238.120 19.747,239.000 19.866 C 239.880 19.985,240.771 20.244,240.980 20.441 C 241.189 20.638,242.033 20.800,242.856 20.800 C 243.679 20.800,244.464 20.980,244.600 21.200 C 244.736 21.420,245.456 21.600,246.200 21.600 C 246.944 21.600,247.664 21.780,247.800 22.000 C 247.936 22.220,248.380 22.400,248.787 22.400 C 249.470 22.400,260.775 25.978,262.600 26.771 C 263.040 26.963,264.030 27.336,264.800 27.600 C 266.493 28.182,267.960 28.771,268.895 29.247 C 269.277 29.441,269.764 29.600,269.977 29.600 C 270.743 29.600,285.586 36.769,289.600 39.078 C 292.011 40.465,293.712 41.437,295.410 42.399 C 298.251 44.008,307.885 50.602,310.800 52.932 C 311.130 53.196,312.030 53.852,312.800 54.391 C 313.570 54.930,314.830 55.961,315.600 56.682 C 316.370 57.403,317.108 57.995,317.240 57.997 C 317.373 57.998,318.453 58.887,319.640 59.972 C 320.828 61.056,322.481 62.541,323.314 63.272 C 325.396 65.100,334.202 73.903,336.400 76.355 C 337.390 77.459,339.055 79.298,340.100 80.441 C 341.145 81.584,342.002 82.627,342.003 82.760 C 342.005 82.892,342.597 83.630,343.318 84.400 C 344.039 85.170,345.070 86.430,345.609 87.200 C 346.148 87.970,346.804 88.870,347.068 89.200 C 349.824 92.647,356.714 102.872,358.694 106.453 C 359.347 107.634,360.347 109.410,360.916 110.400 C 362.930 113.903,370.000 128.419,370.000 129.050 C 370.000 129.176,370.288 129.936,370.641 130.740 C 371.703 133.162,371.925 133.732,372.455 135.400 C 372.735 136.280,373.107 137.171,373.282 137.380 C 373.457 137.589,373.600 138.086,373.600 138.485 C 373.600 138.884,373.778 139.523,373.996 139.905 C 374.598 140.964,377.600 150.386,377.600 151.220 C 377.600 151.623,377.780 152.064,378.000 152.200 C 378.220 152.336,378.400 153.056,378.400 153.800 C 378.400 154.544,378.580 155.264,378.800 155.400 C 379.020 155.536,379.200 156.346,379.200 157.200 C 379.200 158.054,379.357 158.850,379.548 158.968 C 379.740 159.086,380.008 160.042,380.143 161.092 C 380.368 162.828,380.815 165.374,381.357 168.000 C 381.633 169.339,382.342 173.769,382.636 176.000 C 383.377 181.607,384.102 190.757,383.857 191.397 C 383.650 191.935,377.196 191.991,326.312 191.901 L 269.000 191.800 268.871 190.400 C 268.801 189.630,268.576 188.829,268.371 188.620 C 268.167 188.411,268.000 187.387,268.000 186.344 C 268.000 185.301,267.820 184.336,267.600 184.200 C 267.380 184.064,267.195 183.468,267.190 182.876 C 267.179 181.776,265.560 176.627,265.071 176.138 C 264.922 175.989,264.800 175.549,264.800 175.161 C 264.800 173.635,257.431 160.212,255.598 158.400 C 255.486 158.290,254.866 157.480,254.218 156.600 C 252.695 154.531,245.469 147.305,243.400 145.782 C 242.520 145.134,241.710 144.512,241.600 144.398 C 238.409 141.101,220.856 132.800,217.076 132.800 C 216.510 132.800,215.936 132.620,215.800 132.400 C 215.664 132.180,214.832 132.000,213.950 132.000 C 213.069 132.000,212.030 131.830,211.643 131.623 C 209.528 130.491,190.472 130.491,188.357 131.623 C 187.970 131.830,186.931 132.000,186.050 132.000 C 185.168 132.000,184.336 132.180,184.200 132.400 C 184.064 132.620,183.481 132.800,182.905 132.800 C 181.927 132.800,180.072 133.285,178.200 134.029 C 177.760 134.204,176.680 134.580,175.800 134.866 C 172.095 136.066,160.191 142.590,158.400 144.402 C 158.290 144.514,157.480 145.134,156.600 145.782 C 154.531 147.305,147.305 154.531,145.782 156.600 C 145.134 157.480,144.512 158.290,144.398 158.400 C 141.101 161.591,132.800 179.144,132.800 182.924 C 132.800 183.490,132.620 184.064,132.400 184.200 C 132.180 184.336,132.000 185.301,132.000 186.344 C 132.000 187.387,131.833 188.411,131.629 188.620 C 131.424 188.829,131.199 189.630,131.129 190.400 L 131.000 191.800 73.688 191.901 C 23.714 191.990,16.347 191.928,16.152 191.418 C 16.028 191.096,16.217 187.721,16.571 183.917 C 17.399 175.013,17.536 173.858,17.997 171.859 C 18.208 170.946,18.385 169.536,18.390 168.724 C 18.396 167.912,18.557 167.150,18.748 167.032 C 18.940 166.914,19.221 165.868,19.373 164.708 C 19.993 159.987,20.104 159.383,20.427 158.981 C 20.612 158.750,20.810 157.882,20.866 157.053 C 20.922 156.223,21.110 155.456,21.284 155.348 C 21.458 155.241,21.600 154.544,21.600 153.800 C 21.600 153.056,21.780 152.336,22.000 152.200 C 22.220 152.064,22.400 151.623,22.400 151.220 C 22.400 150.386,25.402 140.964,26.004 139.905 C 26.222 139.523,26.400 138.884,26.400 138.485 C 26.400 138.086,26.543 137.589,26.718 137.380 C 26.893 137.171,27.265 136.280,27.545 135.400 C 28.075 133.732,28.297 133.162,29.359 130.740 C 29.712 129.936,30.000 129.176,30.000 129.050 C 30.000 128.407,37.068 113.890,39.081 110.400 C 39.652 109.410,40.663 107.610,41.328 106.400 C 43.202 102.988,50.193 92.626,52.932 89.200 C 53.196 88.870,53.852 87.970,54.391 87.200 C 54.930 86.430,55.961 85.170,56.682 84.400 C 57.403 83.630,57.995 82.892,57.997 82.760 C 57.998 82.627,58.887 81.547,59.972 80.360 C 61.056 79.172,62.541 77.520,63.272 76.689 C 65.022 74.699,74.742 64.985,76.769 63.200 C 77.643 62.430,79.186 61.039,80.198 60.109 C 81.210 59.179,82.272 58.279,82.560 58.109 C 82.847 57.939,83.873 57.134,84.841 56.320 C 89.490 52.409,101.756 43.880,106.400 41.328 C 107.610 40.663,109.410 39.652,110.400 39.081 C 114.373 36.789,129.254 29.600,130.023 29.600 C 130.236 29.600,130.723 29.441,131.105 29.247 C 132.040 28.771,133.507 28.182,135.200 27.600 C 135.970 27.336,136.960 26.963,137.400 26.771 C 139.225 25.978,150.530 22.400,151.213 22.400 C 151.620 22.400,152.064 22.220,152.200 22.000 C 152.336 21.780,153.056 21.600,153.800 21.600 C 154.544 21.600,155.264 21.420,155.400 21.200 C 155.536 20.980,156.346 20.800,157.200 20.800 C 158.054 20.800,158.850 20.643,158.968 20.452 C 159.086 20.260,160.132 19.979,161.292 19.827 C 162.451 19.675,164.120 19.453,165.000 19.334 C 165.880 19.215,166.771 18.956,166.980 18.759 C 167.189 18.562,167.945 18.400,168.660 18.400 C 169.375 18.400,170.824 18.224,171.880 18.010 C 181.000 16.154,204.703 15.417,216.800 16.613 M207.800 146.593 C 256.267 154.199,270.840 215.494,231.000 244.173 C 202.274 264.851,160.697 251.480,148.993 217.800 C 135.732 179.639,168.160 140.373,207.800 146.593 M195.000 165.191 C 166.434 169.189,154.812 204.603,175.370 225.009 C 193.544 243.050,224.464 235.842,233.151 211.539 C 241.909 187.040,220.937 161.562,195.000 165.191 M208.017 174.795 C 236.424 184.245,229.881 226.187,200.000 226.187 C 170.996 226.187,163.456 186.317,190.390 175.373 C 195.275 173.388,203.024 173.134,208.017 174.795 M130.987 207.978 C 131.115 208.186,131.567 210.211,131.991 212.478 C 144.213 277.843,233.074 289.940,262.167 230.200 C 265.172 224.029,266.654 219.450,268.318 211.200 L 269.003 207.800 326.402 207.800 L 383.800 207.800 383.772 212.400 C 383.607 239.283,371.013 276.165,352.766 303.200 C 321.485 349.548,273.433 377.734,215.341 383.812 C 207.508 384.631,186.691 384.179,177.228 382.983 C 96.411 372.772,32.134 311.335,18.219 231.000 C 16.695 222.199,15.552 209.745,16.130 208.238 C 16.417 207.491,130.526 207.232,130.987 207.978 " stroke="none" fill="#2c2c2c" fill-rule="evenodd"></path><path id="path2" d="M193.400 146.878 C 143.743 154.372,129.216 216.861,170.654 244.718 C 205.472 268.124,253.600 242.177,253.600 200.000 C 253.600 168.267,224.109 142.244,193.400 146.878 M208.026 165.124 C 208.562 165.329,209.720 165.716,210.600 165.982 C 219.918 168.803,228.550 176.303,232.257 184.800 C 234.908 190.879,235.400 193.256,235.400 200.000 C 235.400 206.451,234.906 209.044,232.753 213.896 C 232.339 214.828,232.000 215.686,232.000 215.803 C 232.000 218.792,222.676 228.420,216.973 231.319 C 207.234 236.271,196.353 236.937,186.900 233.160 C 179.587 230.237,173.554 225.157,169.529 218.531 C 168.688 217.147,168.000 215.919,168.000 215.803 C 168.000 215.686,167.661 214.828,167.247 213.896 C 165.094 209.044,164.600 206.451,164.600 200.000 C 164.600 194.552,164.856 192.649,166.079 189.000 C 170.118 176.945,178.913 168.825,191.800 165.249 C 194.936 164.379,205.867 164.295,208.026 165.124 M196.000 174.384 C 178.239 176.985,168.568 197.381,177.689 213.000 C 186.811 228.621,209.080 230.260,220.172 216.127 C 234.703 197.613,219.277 170.974,196.000 174.384 M16.884 208.340 C 16.175 208.790,17.778 227.020,18.948 231.800 C 19.055 232.240,19.350 233.770,19.602 235.200 C 21.465 245.756,26.564 262.359,30.964 272.200 C 31.456 273.300,32.108 274.830,32.413 275.600 C 33.559 278.493,39.759 290.269,42.503 294.762 C 59.371 322.388,83.643 345.798,110.980 360.807 C 113.895 362.407,125.083 368.000,125.369 368.000 C 125.483 368.000,126.561 368.450,127.765 369.001 C 132.298 371.075,142.424 374.698,148.400 376.385 C 149.390 376.664,150.650 377.041,151.200 377.223 C 152.965 377.806,162.108 379.907,165.000 380.394 C 166.540 380.654,168.430 381.023,169.200 381.215 C 169.970 381.407,171.500 381.660,172.600 381.778 C 173.700 381.895,176.955 382.255,179.833 382.577 C 193.834 384.142,206.166 384.142,220.167 382.577 C 223.045 382.255,226.300 381.895,227.400 381.778 C 228.500 381.660,230.030 381.407,230.800 381.215 C 231.570 381.023,233.460 380.654,235.000 380.394 C 237.892 379.907,247.035 377.806,248.800 377.223 C 249.350 377.041,250.610 376.664,251.600 376.385 C 257.353 374.761,267.813 371.024,272.112 369.058 C 273.383 368.476,274.518 368.000,274.634 368.000 C 274.909 368.000,286.368 362.256,289.200 360.698 C 318.230 344.731,344.911 318.052,360.704 289.200 C 362.290 286.302,368.000 274.903,368.000 274.634 C 368.000 274.518,368.434 273.473,368.965 272.312 C 373.249 262.939,378.525 245.812,380.398 235.200 C 380.650 233.770,380.945 232.240,381.052 231.800 C 382.222 227.020,383.825 208.790,383.116 208.340 C 382.476 207.933,270.376 207.900,269.739 208.306 C 269.486 208.468,269.153 209.500,269.000 210.600 C 267.562 220.924,262.455 233.146,256.057 241.573 C 235.128 269.141,198.433 277.666,168.097 262.007 C 148.326 251.802,133.967 231.904,131.000 210.600 C 130.847 209.500,130.514 208.468,130.261 208.306 C 129.624 207.900,17.524 207.933,16.884 208.340 " stroke="none" fill="#d9d9d9" fill-rule="evenodd"></path></g></svg>