<svg id="svg" version="1.1" xmlns="http://www.w3.org/2000/svg" xmlns:xlink="http://www.w3.org/1999/xlink" width="400" height="124.44444444444444" viewBox="0, 0, 400,124.44444444444444"><g id="svgg"><path id="path0" d="M383.302 2.420 C 383.255 2.468,382.627 2.619,381.909 2.757 C 381.190 2.894,380.485 3.109,380.343 3.235 C 380.200 3.360,379.845 3.514,379.553 3.575 C 379.262 3.637,378.938 3.791,378.833 3.917 C 378.729 4.042,378.416 4.195,378.138 4.256 C 377.859 4.318,377.246 4.557,376.774 4.789 C 375.949 5.195,375.171 5.552,373.750 6.174 C 373.383 6.335,372.633 6.667,372.083 6.913 C 371.533 7.159,370.783 7.493,370.417 7.656 C 366.430 9.425,365.701 9.837,364.773 10.852 C 364.302 11.367,363.692 11.904,363.417 12.046 C 362.645 12.444,361.337 13.783,361.052 14.467 C 360.911 14.806,360.656 15.279,360.487 15.517 C 360.277 15.812,360.143 16.401,360.066 17.351 C 360.005 18.120,359.833 18.975,359.685 19.250 C 359.448 19.692,359.411 20.998,359.364 30.542 L 359.312 41.333 358.947 41.334 C 358.747 41.335,358.358 41.457,358.083 41.606 C 357.808 41.754,357.246 41.942,356.833 42.022 C 356.105 42.165,355.451 42.436,353.772 43.293 C 352.741 43.820,352.743 43.823,352.608 41.166 C 352.549 39.986,352.425 38.824,352.333 38.583 C 352.242 38.342,352.168 37.456,352.170 36.614 C 352.177 33.404,351.811 26.738,351.588 26.000 C 351.438 25.504,351.330 23.900,351.270 21.262 C 351.147 15.894,350.490 13.998,348.510 13.294 C 347.348 12.881,336.419 13.004,335.500 13.440 C 335.087 13.636,334.525 13.874,334.250 13.970 C 333.234 14.325,331.801 14.965,331.620 15.147 C 331.517 15.249,331.317 15.334,331.175 15.335 C 331.033 15.336,330.542 15.521,330.083 15.746 C 329.625 15.972,329.137 16.159,329.000 16.163 C 328.862 16.166,328.525 16.318,328.250 16.500 C 327.975 16.682,327.652 16.832,327.531 16.832 C 327.306 16.833,325.858 17.450,324.833 17.982 C 324.512 18.149,324.025 18.336,323.750 18.399 C 323.475 18.462,322.912 18.672,322.500 18.865 C 321.346 19.404,320.516 19.765,319.333 20.242 C 317.234 21.087,316.604 21.528,314.456 23.649 C 312.224 25.853,311.167 27.419,311.167 28.520 C 311.167 28.791,311.027 29.292,310.856 29.632 C 310.684 29.972,310.491 30.809,310.425 31.493 C 310.360 32.176,310.193 32.954,310.055 33.221 C 309.914 33.495,309.764 34.379,309.712 35.251 L 309.620 36.796 306.102 36.911 C 304.167 36.974,299.846 37.088,296.500 37.164 C 289.877 37.315,286.470 37.540,284.917 37.931 C 284.367 38.070,282.938 38.253,281.743 38.339 C 280.547 38.425,279.197 38.608,278.743 38.746 C 278.288 38.884,277.633 38.997,277.286 38.998 C 276.344 39.001,275.623 39.374,274.693 40.339 L 273.856 41.207 272.720 41.079 C 268.554 40.611,255.033 41.024,253.583 41.664 C 253.217 41.826,252.639 42.008,252.299 42.069 C 251.959 42.129,251.359 42.318,250.965 42.488 C 250.572 42.658,250.086 42.847,249.885 42.907 L 249.519 43.016 249.616 40.300 C 249.688 38.263,249.780 37.458,249.981 37.083 C 250.385 36.332,250.482 26.771,250.093 26.019 C 249.912 25.669,249.799 24.803,249.726 23.215 C 249.668 21.951,249.555 20.833,249.475 20.730 C 249.394 20.627,249.219 20.175,249.085 19.725 C 248.797 18.756,248.113 18.050,246.849 17.418 L 245.947 16.968 238.849 17.049 C 234.606 17.097,231.482 17.201,231.083 17.308 C 230.717 17.406,228.546 17.569,226.260 17.671 C 223.727 17.783,221.970 17.931,221.760 18.050 C 221.546 18.172,220.132 18.282,218.000 18.342 C 213.195 18.478,211.381 19.382,210.933 21.866 C 210.867 22.233,210.706 22.518,210.534 22.572 C 210.056 22.724,209.189 24.776,208.946 26.333 C 208.824 27.113,208.637 27.914,208.529 28.114 C 208.421 28.314,208.333 29.014,208.333 29.670 L 208.333 30.862 207.497 30.196 C 206.861 29.689,206.453 29.503,205.789 29.415 C 205.309 29.351,204.515 29.196,204.023 29.070 C 203.532 28.945,201.919 28.796,200.440 28.740 C 198.960 28.684,197.412 28.535,197.000 28.410 C 196.588 28.286,194.788 28.096,193.000 27.989 C 191.213 27.881,189.600 27.736,189.416 27.667 C 189.233 27.597,188.122 27.442,186.949 27.324 C 184.683 27.094,184.459 27.002,183.892 26.062 C 183.722 25.781,183.438 25.333,183.260 25.067 C 182.871 24.485,180.289 20.522,179.687 19.583 C 178.873 18.313,177.959 17.324,177.027 16.705 L 176.090 16.083 170.157 16.083 L 164.224 16.083 163.320 16.523 C 162.823 16.765,162.304 17.013,162.167 17.075 C 162.029 17.136,161.542 17.402,161.083 17.667 C 160.625 17.933,159.950 18.303,159.583 18.491 C 158.669 18.959,157.170 19.805,156.667 20.137 C 156.438 20.288,155.987 20.542,155.667 20.703 C 155.346 20.864,154.408 21.374,153.583 21.837 C 152.758 22.299,151.877 22.758,151.625 22.855 C 151.373 22.953,151.167 23.092,151.167 23.165 C 151.167 23.238,150.885 23.423,150.542 23.577 C 150.198 23.730,149.542 24.071,149.083 24.335 C 148.625 24.598,148.063 24.893,147.833 24.990 C 147.604 25.087,147.304 25.238,147.167 25.326 C 147.029 25.414,146.128 25.936,145.164 26.486 C 142.812 27.829,141.347 29.544,141.327 30.975 C 141.324 31.218,141.214 31.604,141.083 31.833 C 140.952 32.063,140.842 32.466,140.839 32.730 C 140.836 32.995,140.675 33.467,140.481 33.781 C 140.220 34.203,140.106 34.726,140.042 35.800 C 139.995 36.598,139.862 37.438,139.748 37.667 C 139.368 38.431,139.273 40.829,139.589 41.671 C 139.743 42.081,139.937 43.087,140.020 43.907 C 140.118 44.867,140.290 45.598,140.503 45.958 C 140.684 46.267,140.833 46.650,140.833 46.810 C 140.833 46.971,141.021 47.356,141.250 47.667 C 141.479 47.977,141.667 48.357,141.667 48.510 C 141.667 48.663,141.817 48.979,142.000 49.212 C 142.499 49.847,142.435 50.062,141.792 49.909 C 140.588 49.623,129.961 49.636,129.320 49.924 C 128.991 50.071,128.466 50.168,128.153 50.138 L 127.583 50.083 127.475 48.667 C 127.415 47.887,127.359 45.466,127.350 43.286 C 127.336 40.053,127.284 39.208,127.067 38.703 C 126.857 38.214,126.766 37.009,126.637 33.000 C 126.525 29.518,126.405 27.759,126.256 27.417 C 126.125 27.115,126.006 25.922,125.956 24.412 C 125.885 22.244,125.826 21.830,125.521 21.329 C 125.327 21.011,125.168 20.555,125.167 20.316 C 125.167 20.078,124.725 18.990,124.186 17.900 C 123.646 16.809,123.155 15.751,123.093 15.549 C 122.950 15.074,121.412 13.687,120.694 13.384 C 119.823 13.017,109.255 13.138,108.667 13.521 C 108.438 13.671,107.987 13.840,107.667 13.898 C 107.346 13.956,106.783 14.146,106.417 14.320 C 104.373 15.291,103.893 15.500,103.705 15.500 C 103.592 15.500,103.219 15.650,102.877 15.833 C 102.535 16.017,102.156 16.167,102.035 16.167 C 101.915 16.167,101.539 16.314,101.200 16.494 C 100.168 17.041,98.780 17.623,98.220 17.742 C 97.928 17.804,97.604 17.958,97.500 18.083 C 97.396 18.209,97.072 18.363,96.780 18.425 C 96.489 18.486,96.138 18.631,96.000 18.746 C 95.862 18.861,95.525 19.008,95.250 19.072 C 94.807 19.176,94.247 19.410,92.417 20.257 C 92.142 20.384,91.713 20.536,91.465 20.594 C 91.217 20.652,90.927 20.804,90.821 20.932 C 90.715 21.060,90.353 21.238,90.016 21.329 C 89.146 21.563,87.545 23.199,87.326 24.078 C 87.234 24.447,87.042 25.008,86.900 25.323 C 86.758 25.638,86.602 26.426,86.553 27.073 C 86.505 27.720,86.330 28.550,86.165 28.917 C 86.000 29.283,85.813 30.032,85.749 30.580 C 85.685 31.129,85.534 31.841,85.413 32.164 C 85.292 32.486,85.160 33.430,85.119 34.260 C 85.079 35.091,84.954 35.940,84.843 36.148 C 84.732 36.356,84.598 37.495,84.545 38.679 L 84.450 40.833 79.975 40.833 L 75.500 40.833 75.499 38.042 C 75.499 35.546,75.464 35.192,75.166 34.704 C 74.920 34.301,74.833 33.865,74.833 33.029 C 74.833 31.923,74.545 31.045,73.729 29.667 C 73.593 29.438,73.366 28.988,73.224 28.667 C 73.082 28.346,72.722 27.783,72.424 27.417 C 72.126 27.050,71.762 26.516,71.614 26.229 C 71.350 25.715,69.624 23.784,67.833 22.000 C 66.711 20.882,65.335 19.821,64.238 19.228 C 63.786 18.984,63.229 18.683,63.000 18.560 C 62.771 18.436,62.461 18.335,62.312 18.334 C 62.163 18.334,61.953 18.227,61.845 18.098 C 61.738 17.969,61.260 17.773,60.783 17.663 C 60.307 17.553,59.746 17.355,59.537 17.225 C 59.329 17.094,58.654 16.947,58.037 16.898 C 57.421 16.850,56.579 16.684,56.167 16.530 C 55.185 16.164,36.178 16.114,34.750 16.474 C 34.292 16.590,33.113 16.752,32.130 16.835 C 31.147 16.919,30.134 17.092,29.880 17.221 C 29.625 17.350,28.822 17.507,28.095 17.570 C 27.367 17.634,26.453 17.832,26.062 18.010 C 25.671 18.188,25.029 18.337,24.634 18.341 C 24.240 18.345,23.617 18.462,23.250 18.602 C 22.883 18.742,22.083 18.959,21.471 19.084 C 20.859 19.209,20.131 19.429,19.854 19.573 C 19.577 19.716,19.101 19.833,18.797 19.833 C 18.494 19.833,17.984 19.972,17.664 20.141 C 17.345 20.310,16.744 20.494,16.328 20.550 C 15.913 20.605,15.238 20.802,14.828 20.988 C 14.419 21.174,13.901 21.328,13.678 21.330 C 13.454 21.332,12.967 21.476,12.594 21.650 C 12.222 21.824,11.654 22.012,11.333 22.067 C 11.012 22.123,10.534 22.281,10.270 22.419 C 10.005 22.557,9.480 22.716,9.103 22.773 C 8.725 22.829,8.192 23.007,7.917 23.167 C 7.642 23.327,7.088 23.507,6.686 23.568 C 6.284 23.628,5.768 23.825,5.538 24.006 C 5.309 24.186,4.996 24.333,4.842 24.333 C 4.187 24.333,3.173 25.639,2.680 27.117 C 2.133 28.755,2.087 39.751,2.623 40.751 C 2.873 41.218,3.001 41.815,3.052 42.750 C 3.104 43.704,3.234 44.297,3.509 44.833 C 4.221 46.226,4.295 46.415,4.412 47.120 C 4.475 47.507,4.671 48.006,4.847 48.230 C 5.023 48.453,5.167 48.850,5.167 49.111 C 5.167 49.372,5.354 49.938,5.583 50.369 C 5.813 50.799,6.000 51.257,6.000 51.387 C 6.000 51.516,6.150 51.812,6.333 52.045 C 6.517 52.279,6.667 52.685,6.667 52.949 C 6.667 53.213,6.808 53.707,6.981 54.046 C 7.154 54.386,7.348 54.945,7.412 55.290 C 7.523 55.886,7.768 56.466,8.383 57.583 C 8.534 57.858,8.814 58.418,9.005 58.826 C 9.685 60.284,12.609 62.832,13.604 62.833 C 15.061 62.834,16.070 63.531,16.499 64.830 C 16.621 65.199,16.774 65.500,16.841 65.500 C 16.908 65.500,17.015 65.850,17.079 66.278 C 17.143 66.706,17.296 67.212,17.419 67.403 C 17.542 67.594,17.693 68.050,17.756 68.417 C 17.819 68.783,18.012 69.331,18.185 69.635 C 18.358 69.938,18.500 70.371,18.500 70.598 C 18.500 70.825,18.688 71.381,18.917 71.833 C 19.146 72.286,19.333 72.841,19.333 73.068 C 19.333 73.295,19.475 73.729,19.647 74.032 C 19.820 74.335,20.010 74.913,20.070 75.316 C 20.129 75.719,20.326 76.255,20.506 76.508 C 20.686 76.761,20.833 77.201,20.833 77.486 C 20.833 78.000,21.056 78.526,21.458 78.964 C 21.573 79.088,21.667 79.318,21.667 79.475 C 21.667 79.631,21.769 79.907,21.893 80.088 C 22.018 80.269,22.173 80.717,22.239 81.083 C 22.304 81.450,22.502 81.998,22.679 82.301 C 22.855 82.604,23.002 83.017,23.004 83.218 C 23.006 83.419,23.152 83.903,23.330 84.294 C 23.507 84.685,23.705 85.285,23.769 85.627 C 23.833 85.970,24.024 86.496,24.193 86.797 C 24.362 87.097,24.500 87.532,24.500 87.762 C 24.500 87.992,24.641 88.458,24.813 88.798 C 24.986 89.138,25.179 89.733,25.244 90.120 C 25.308 90.507,25.505 91.006,25.680 91.230 C 25.864 91.463,26.000 91.897,26.000 92.251 C 26.000 92.589,26.142 93.065,26.316 93.310 C 26.491 93.555,26.683 94.201,26.745 94.752 C 26.868 95.852,27.127 96.667,27.354 96.667 C 27.434 96.667,27.500 96.971,27.500 97.342 C 27.500 97.788,27.642 98.226,27.917 98.631 C 28.172 99.007,28.333 99.478,28.333 99.850 C 28.333 100.184,28.471 100.633,28.641 100.853 C 28.811 101.071,28.998 101.451,29.058 101.697 C 29.118 101.942,29.267 102.244,29.390 102.366 C 29.512 102.488,29.656 102.918,29.710 103.320 C 29.764 103.722,29.964 104.262,30.154 104.519 C 30.344 104.776,30.500 105.109,30.500 105.259 C 30.500 105.409,30.637 105.731,30.804 105.974 C 30.972 106.218,31.205 106.660,31.324 106.957 C 31.567 107.568,32.703 108.667,33.091 108.667 C 33.232 108.667,33.569 108.831,33.840 109.031 C 34.183 109.285,34.647 109.417,35.375 109.467 C 36.015 109.511,36.536 109.643,36.725 109.811 C 37.260 110.283,44.454 110.311,45.349 109.845 C 45.727 109.648,46.326 109.500,46.747 109.500 C 47.498 109.500,48.241 109.255,48.637 108.877 C 48.758 108.761,48.992 108.667,49.156 108.667 C 49.321 108.667,49.634 108.530,49.853 108.364 C 50.071 108.197,50.475 107.969,50.750 107.858 C 51.025 107.746,51.540 107.395,51.893 107.077 C 52.247 106.760,52.670 106.500,52.832 106.500 C 52.994 106.500,53.492 106.163,53.939 105.752 L 54.750 105.004 56.347 105.002 L 57.944 105.000 58.522 105.578 C 58.840 105.896,59.359 106.275,59.675 106.421 C 59.991 106.567,60.438 106.794,60.667 106.924 C 60.896 107.055,61.271 107.165,61.500 107.169 C 61.729 107.174,62.292 107.362,62.750 107.587 C 63.208 107.812,63.797 107.998,64.057 107.998 C 64.318 107.999,64.709 108.140,64.927 108.312 C 65.232 108.551,65.746 108.651,67.159 108.742 C 68.428 108.824,69.199 108.960,69.656 109.181 C 70.676 109.673,81.997 109.670,83.018 109.177 C 83.483 108.953,84.228 108.821,85.468 108.745 C 86.826 108.662,87.357 108.560,87.702 108.318 C 87.950 108.143,88.364 108.000,88.621 108.000 C 88.878 108.000,89.374 107.847,89.722 107.660 C 90.071 107.473,90.745 107.247,91.220 107.158 C 91.695 107.069,92.167 106.885,92.268 106.748 C 92.370 106.612,92.640 106.500,92.867 106.500 L 93.281 106.500 93.389 109.374 C 93.484 111.887,93.540 112.306,93.832 112.701 C 94.016 112.950,94.167 113.375,94.167 113.647 C 94.167 115.549,96.688 118.330,98.417 118.334 C 98.967 118.335,99.420 118.448,99.750 118.667 C 100.438 119.122,124.544 119.192,125.409 118.741 C 125.680 118.600,126.243 118.445,126.659 118.398 C 128.007 118.245,128.172 118.168,129.069 117.286 C 130.266 116.109,131.020 114.585,131.128 113.125 C 131.174 112.506,131.270 112.000,131.342 112.000 C 131.720 112.000,133.061 112.718,133.476 113.142 C 133.739 113.411,134.283 113.779,134.685 113.961 C 135.087 114.143,135.754 114.637,136.167 115.058 C 136.579 115.479,137.185 115.933,137.513 116.066 C 137.840 116.199,138.514 116.698,139.010 117.176 C 139.506 117.654,140.213 118.176,140.581 118.335 C 140.949 118.495,141.493 118.859,141.790 119.146 C 142.087 119.432,142.429 119.667,142.549 119.667 C 142.670 119.667,143.023 119.854,143.333 120.083 C 143.644 120.312,144.127 120.502,144.407 120.505 C 144.687 120.508,145.292 120.695,145.750 120.920 C 146.404 121.242,146.846 121.331,147.807 121.332 C 148.777 121.333,149.119 121.403,149.455 121.667 C 150.042 122.129,152.870 122.158,153.505 121.708 C 153.787 121.509,154.369 121.388,155.350 121.327 C 156.384 121.262,156.919 121.147,157.267 120.912 C 157.533 120.733,157.952 120.511,158.199 120.418 C 159.337 119.991,160.667 118.330,160.667 117.336 C 160.667 116.968,160.730 116.667,160.807 116.667 C 161.209 116.667,161.393 115.616,161.462 112.917 C 161.559 109.109,160.884 109.500,167.367 109.500 C 172.251 109.500,172.736 109.474,173.339 109.183 C 173.786 108.967,174.568 108.828,175.789 108.748 C 177.095 108.662,177.725 108.544,178.103 108.315 C 178.869 107.851,181.667 107.848,181.667 108.311 C 181.667 108.482,181.817 108.812,182.000 109.045 C 182.246 109.358,182.333 109.722,182.333 110.427 C 182.333 111.192,182.417 111.495,182.750 111.931 C 182.979 112.232,183.167 112.623,183.167 112.800 C 183.167 113.167,185.185 115.333,185.528 115.333 C 185.651 115.333,186.105 115.521,186.535 115.750 C 187.082 116.041,187.580 116.167,188.188 116.167 C 188.782 116.167,189.159 116.259,189.379 116.458 C 189.678 116.729,190.374 116.750,198.917 116.750 C 207.459 116.750,208.155 116.729,208.454 116.458 C 208.677 116.256,209.054 116.166,209.680 116.166 C 210.347 116.165,210.757 116.058,211.250 115.754 C 211.617 115.529,212.050 115.341,212.214 115.339 C 212.377 115.336,212.778 115.066,213.105 114.740 C 213.961 113.883,214.205 113.833,217.557 113.833 C 220.099 113.833,220.656 113.789,220.982 113.560 C 221.315 113.327,222.097 113.276,226.394 113.210 C 230.862 113.140,231.475 113.098,231.948 112.827 C 232.354 112.595,233.006 112.497,234.698 112.413 C 236.491 112.324,237.003 112.242,237.368 111.985 C 237.669 111.773,238.102 111.667,238.668 111.667 C 239.930 111.667,242.295 109.832,242.823 108.444 C 243.043 107.865,244.781 107.788,245.699 108.318 C 246.092 108.545,246.751 108.670,248.000 108.754 C 249.189 108.835,249.948 108.973,250.368 109.186 C 251.308 109.663,262.715 109.660,263.766 109.183 C 264.201 108.985,265.075 108.829,266.182 108.753 C 267.427 108.666,268.063 108.543,268.436 108.316 C 268.758 108.120,269.266 108.000,269.770 107.999 C 270.342 107.999,270.781 107.876,271.250 107.588 C 272.548 106.788,274.766 107.007,275.847 108.042 C 276.403 108.573,276.542 108.621,277.854 108.722 C 278.729 108.789,279.527 108.957,279.957 109.165 C 280.964 109.651,286.508 109.670,287.465 109.190 C 287.944 108.949,288.645 108.854,290.582 108.766 C 292.279 108.688,293.196 108.577,293.439 108.418 C 293.690 108.253,294.631 108.151,296.606 108.075 C 298.814 107.989,299.560 107.900,300.083 107.659 C 300.558 107.440,301.349 107.320,302.833 107.243 C 304.381 107.161,305.079 107.052,305.547 106.817 C 305.893 106.642,306.343 106.500,306.547 106.499 C 307.496 106.498,310.333 103.815,310.333 102.919 C 310.333 102.755,310.462 102.526,310.619 102.411 C 311.143 102.028,311.437 87.931,310.967 85.750 C 310.695 84.485,310.606 80.358,310.845 80.070 C 310.994 79.889,311.522 79.833,313.065 79.833 C 314.789 79.833,315.183 79.783,315.729 79.490 C 316.936 78.843,316.937 78.847,317.079 85.206 C 317.182 89.805,317.247 90.800,317.465 91.133 C 317.687 91.472,317.744 92.545,317.838 98.173 C 317.931 103.752,317.990 104.876,318.206 105.206 C 318.415 105.526,318.475 106.336,318.524 109.508 C 318.580 113.205,318.604 113.451,318.958 114.051 C 319.165 114.400,319.333 114.914,319.333 115.192 C 319.333 115.832,319.817 116.667,320.188 116.667 C 320.343 116.667,320.835 116.955,321.280 117.307 C 322.430 118.216,322.703 118.333,323.671 118.333 C 324.278 118.333,324.655 118.431,324.955 118.667 C 325.613 119.185,340.968 119.185,341.750 118.667 C 342.203 118.367,342.537 118.335,345.298 118.334 C 348.016 118.333,348.417 118.297,349.000 118.000 C 349.366 117.813,349.982 117.667,350.402 117.667 C 351.297 117.667,351.919 117.415,352.551 116.798 C 352.808 116.547,353.344 116.197,353.742 116.020 C 354.478 115.695,354.555 115.575,354.744 114.454 C 354.802 114.107,354.986 113.582,355.152 113.287 C 355.318 112.992,355.546 112.188,355.659 111.500 C 355.771 110.813,355.930 110.081,356.011 109.875 L 356.160 109.500 360.358 109.500 C 364.123 109.500,364.590 109.530,364.879 109.792 C 365.347 110.215,382.880 110.334,383.710 109.920 C 384.083 109.734,384.994 109.635,386.988 109.563 C 389.161 109.486,389.892 109.399,390.417 109.158 C 390.783 108.990,391.557 108.800,392.137 108.737 C 393.197 108.620,393.658 108.356,394.783 107.220 C 395.182 106.818,396.333 104.524,396.333 104.132 C 396.333 103.994,396.521 103.680,396.750 103.432 C 396.979 103.185,397.167 102.853,397.167 102.693 C 397.167 102.534,397.317 102.110,397.500 101.750 C 397.885 100.996,398.017 61.896,397.641 60.083 C 397.543 59.611,397.402 54.700,397.317 48.750 C 397.037 29.245,396.560 6.430,396.413 5.560 C 396.228 4.459,394.603 3.039,393.098 2.663 C 391.832 2.346,383.580 2.142,383.302 2.420 M388.570 22.833 C 388.710 29.204,388.906 39.629,389.005 46.000 C 389.104 52.371,389.272 59.496,389.380 61.833 C 389.666 68.076,389.656 96.244,389.367 96.533 C 389.217 96.683,388.242 96.791,386.200 96.884 C 384.578 96.957,380.925 97.158,378.083 97.328 C 372.231 97.680,372.157 97.671,371.985 96.613 C 371.810 95.532,371.528 95.387,370.385 95.789 C 361.986 98.744,353.274 96.214,348.663 89.482 C 348.105 88.667,347.621 88.000,347.588 88.000 C 347.555 88.000,347.397 87.950,347.238 87.889 C 346.972 87.787,346.957 87.913,347.047 89.514 C 347.100 90.469,347.227 92.787,347.329 94.667 C 347.431 96.546,347.624 99.569,347.758 101.385 C 348.092 105.931,348.410 105.615,343.296 105.831 C 341.254 105.917,337.708 106.116,335.417 106.274 C 329.576 106.675,330.115 107.154,329.841 101.312 C 329.737 99.078,329.504 94.587,329.324 91.333 C 329.145 88.079,328.920 83.617,328.824 81.417 C 328.729 79.217,328.584 76.517,328.501 75.417 C 328.419 74.317,328.307 72.179,328.252 70.667 C 328.078 65.857,327.636 59.094,327.476 58.792 C 327.143 58.162,327.714 57.833,317.391 64.600 C 314.676 66.380,314.763 66.384,313.660 64.435 C 309.492 57.065,304.363 59.180,302.793 68.917 C 302.300 71.973,302.249 84.937,302.709 90.222 C 303.089 94.591,303.346 94.297,298.750 94.746 C 297.283 94.890,295.671 95.078,295.167 95.163 C 294.662 95.249,293.350 95.401,292.250 95.499 C 291.150 95.598,289.537 95.783,288.667 95.910 C 283.483 96.668,283.292 96.592,282.991 93.655 C 282.895 92.721,282.745 91.578,282.657 91.114 C 282.569 90.651,282.350 88.685,282.170 86.746 C 281.707 81.752,281.719 81.762,279.647 84.538 C 271.035 96.077,257.530 99.932,247.869 93.610 C 239.819 88.341,236.739 73.481,241.658 63.644 C 244.328 58.306,251.537 52.305,257.777 50.227 C 265.331 47.712,274.643 49.642,279.808 54.793 C 281.527 56.507,281.500 56.555,281.500 51.748 C 281.500 46.980,281.377 47.244,283.752 46.915 C 287.048 46.458,289.619 46.129,291.583 45.913 C 292.683 45.792,294.071 45.613,294.667 45.515 C 296.529 45.207,296.561 45.217,297.915 46.498 C 299.295 47.805,299.235 47.793,301.250 47.128 C 305.598 45.691,309.820 44.837,312.583 44.835 C 316.985 44.832,321.361 46.940,325.464 51.038 C 327.550 53.121,327.472 53.271,327.091 47.901 C 326.960 46.059,326.799 43.222,326.734 41.596 C 326.585 37.876,326.557 37.823,324.985 38.207 C 320.454 39.315,320.599 39.501,321.770 34.083 C 321.909 33.442,322.127 32.283,322.254 31.508 C 322.475 30.162,322.809 29.437,323.342 29.142 C 323.625 28.985,324.592 28.564,326.333 27.838 C 327.021 27.552,327.921 27.174,328.333 26.999 C 328.746 26.824,329.908 26.335,330.917 25.912 C 331.925 25.490,333.162 24.970,333.667 24.758 C 334.171 24.545,335.783 23.870,337.250 23.258 C 338.717 22.646,340.339 21.962,340.854 21.739 C 342.750 20.918,342.868 21.072,343.029 24.560 C 343.097 26.040,343.264 28.712,343.401 30.500 C 343.537 32.287,343.695 34.875,343.751 36.250 C 343.808 37.625,343.960 40.063,344.091 41.667 C 344.221 43.271,344.405 46.228,344.499 48.239 C 344.593 50.250,344.776 53.325,344.906 55.072 C 345.037 56.820,345.193 59.472,345.255 60.966 C 345.434 65.317,345.672 65.566,347.157 62.952 C 351.551 55.214,360.880 49.242,369.139 48.880 C 370.728 48.810,371.428 48.715,371.597 48.546 C 371.798 48.345,371.833 46.029,371.833 33.257 C 371.833 19.163,371.852 18.182,372.125 17.857 C 372.285 17.667,374.746 16.467,377.592 15.191 C 380.439 13.915,383.251 12.646,383.842 12.372 C 384.433 12.098,385.442 11.649,386.083 11.374 C 388.535 10.323,388.266 9.084,388.570 22.833 M115.315 21.800 C 115.404 21.965,115.524 23.034,115.583 24.175 C 115.642 25.316,115.797 27.563,115.928 29.167 C 116.058 30.771,116.240 33.616,116.332 35.490 C 116.423 37.363,116.606 40.251,116.739 41.906 C 116.871 43.562,117.026 46.004,117.083 47.333 C 117.141 48.663,117.294 50.987,117.422 52.500 C 117.550 54.012,117.734 56.900,117.830 58.917 C 118.232 67.342,118.024 67.011,121.651 64.999 C 122.972 64.266,124.078 63.667,124.110 63.667 C 124.142 63.667,125.087 63.154,126.209 62.527 C 127.332 61.900,128.850 61.061,129.583 60.664 C 130.317 60.266,131.779 59.467,132.833 58.887 C 135.176 57.600,134.078 57.606,141.750 58.836 C 142.850 59.013,144.200 59.205,144.750 59.263 C 145.300 59.321,146.261 59.473,146.886 59.601 C 148.831 59.999,148.956 59.967,150.385 58.719 C 158.228 51.865,170.089 49.227,179.167 52.317 C 181.338 53.056,181.676 52.924,181.377 51.451 C 180.796 48.595,180.610 47.731,179.662 43.500 C 179.487 42.721,179.272 41.671,179.185 41.167 C 179.097 40.662,178.889 39.837,178.721 39.333 L 178.417 38.417 177.181 38.461 C 176.501 38.486,175.451 38.622,174.847 38.764 C 174.244 38.906,173.150 39.126,172.417 39.252 C 171.683 39.379,170.521 39.594,169.833 39.730 C 169.146 39.866,167.533 40.173,166.250 40.412 C 163.826 40.862,161.705 41.266,158.792 41.832 C 153.650 42.830,154.010 42.893,152.583 40.741 C 148.850 35.110,148.782 35.831,153.276 33.410 C 154.087 32.973,156.325 31.737,158.250 30.664 C 160.175 29.590,162.275 28.426,162.917 28.077 C 163.558 27.729,165.283 26.771,166.750 25.949 C 170.781 23.691,170.145 23.420,173.704 28.917 C 178.274 35.975,177.436 35.229,181.083 35.488 C 182.550 35.593,184.575 35.783,185.583 35.911 C 186.592 36.040,188.054 36.190,188.833 36.246 C 189.612 36.302,191.600 36.490,193.250 36.665 C 194.900 36.840,197.147 37.061,198.243 37.155 C 199.968 37.303,200.286 37.377,200.617 37.708 C 201.070 38.161,201.060 38.115,202.679 47.333 C 202.865 48.387,203.133 49.850,203.276 50.583 C 203.419 51.317,203.636 52.554,203.760 53.333 C 203.883 54.112,204.093 55.313,204.227 56.000 C 204.360 56.688,204.550 57.733,204.647 58.323 C 205.039 60.692,205.428 60.434,207.503 56.429 C 209.599 52.383,209.652 52.351,210.834 54.467 C 211.229 55.172,211.867 56.313,212.253 57.000 C 212.639 57.688,213.425 59.090,214.000 60.116 C 215.583 62.942,215.885 62.787,216.173 58.995 C 216.274 57.669,216.497 55.121,216.670 53.333 C 216.842 51.546,217.029 49.371,217.084 48.500 C 217.140 47.629,217.292 45.979,217.421 44.833 C 217.550 43.688,217.738 41.550,217.838 40.083 C 217.937 38.617,218.087 36.929,218.169 36.333 C 218.252 35.737,218.400 34.050,218.498 32.583 C 218.901 26.582,218.809 26.767,221.448 26.598 C 222.439 26.534,223.925 26.411,224.750 26.324 C 225.575 26.237,227.975 26.058,230.083 25.926 C 232.192 25.795,235.379 25.563,237.167 25.411 C 241.646 25.030,241.584 24.992,241.168 27.833 C 241.080 28.429,240.928 30.079,240.828 31.500 C 240.729 32.921,240.543 34.946,240.415 36.000 C 240.287 37.054,240.139 38.554,240.086 39.333 C 239.999 40.633,239.816 42.664,239.075 50.583 C 238.929 52.142,238.739 54.279,238.651 55.333 C 238.564 56.387,238.348 58.750,238.171 60.583 C 237.994 62.417,237.804 64.592,237.750 65.417 C 237.696 66.242,237.547 67.817,237.420 68.917 C 237.292 70.017,237.144 71.554,237.090 72.333 C 236.988 73.802,236.566 78.432,235.997 84.333 C 235.816 86.212,235.626 88.388,235.575 89.167 C 235.524 89.946,235.374 91.558,235.241 92.750 C 235.108 93.942,234.932 95.852,234.849 96.995 C 234.645 99.809,234.706 99.759,231.387 99.911 C 230.028 99.973,227.717 100.131,226.250 100.261 C 224.783 100.391,221.723 100.585,219.448 100.692 C 214.531 100.924,215.365 101.360,212.859 97.250 C 209.857 92.328,210.011 92.366,208.592 96.206 C 208.278 97.055,207.786 98.350,207.499 99.083 C 207.213 99.817,206.838 100.792,206.668 101.250 C 205.379 104.714,206.317 104.333,199.072 104.333 C 194.447 104.333,193.002 104.285,192.874 104.125 C 192.711 103.921,192.239 101.977,191.508 98.500 C 191.306 97.537,191.001 96.150,190.830 95.417 C 190.514 94.056,190.214 92.636,189.655 89.851 C 189.162 87.391,188.908 87.252,187.444 88.641 C 179.944 95.752,163.107 99.108,152.972 95.513 C 151.437 94.968,151.051 94.976,150.968 95.556 C 150.902 96.017,151.126 100.854,151.397 104.833 C 151.617 108.048,151.556 108.667,151.023 108.667 C 150.849 108.667,148.653 107.192,146.144 105.389 C 143.636 103.586,141.096 101.762,140.500 101.335 C 139.904 100.908,137.767 99.370,135.750 97.916 C 133.733 96.463,130.808 94.361,129.250 93.246 C 127.692 92.130,125.303 90.419,123.941 89.442 C 121.360 87.591,121.115 87.474,120.852 87.966 C 120.681 88.284,120.859 94.210,121.157 98.121 C 121.248 99.316,121.373 101.603,121.436 103.203 L 121.549 106.113 121.154 106.390 C 120.670 106.729,104.316 106.818,103.365 106.486 C 102.646 106.236,102.499 105.071,102.247 97.667 C 102.193 96.063,102.041 93.138,101.911 91.167 C 101.780 89.196,101.592 85.521,101.492 83.000 C 101.392 80.479,101.256 78.154,101.189 77.833 C 101.015 76.994,100.507 77.036,100.193 77.917 C 99.147 80.856,98.373 82.301,96.519 84.772 C 87.997 96.129,74.422 99.873,64.750 93.534 C 56.929 88.408,53.843 73.432,58.612 63.750 C 61.792 57.295,70.426 50.856,77.750 49.479 C 85.868 47.953,95.286 51.394,98.655 57.116 C 99.551 58.639,99.776 58.840,99.980 58.302 C 100.146 57.867,99.968 51.985,99.659 47.691 C 99.558 46.283,99.421 43.721,99.354 41.998 C 99.194 37.846,99.310 37.944,95.614 38.868 C 93.440 39.411,93.317 39.234,93.896 36.417 C 94.446 33.745,94.822 31.896,95.005 30.955 C 95.232 29.788,95.677 29.376,97.504 28.644 C 98.189 28.369,99.912 27.653,101.333 27.053 C 105.468 25.307,105.659 25.227,107.583 24.421 C 109.714 23.529,110.297 23.281,112.667 22.261 C 114.589 21.434,115.074 21.350,115.315 21.800 M52.250 24.897 C 60.769 27.147,65.853 33.313,64.015 39.167 C 62.215 44.898,55.543 53.224,44.292 63.778 C 42.476 65.482,42.494 65.433,42.992 67.250 C 43.167 67.892,43.432 68.867,43.580 69.417 C 43.729 69.967,43.987 70.867,44.154 71.417 C 44.320 71.967,44.626 73.017,44.832 73.750 C 45.476 76.039,46.003 77.884,46.260 78.750 C 46.680 80.171,48.022 84.873,48.257 85.750 C 48.380 86.208,48.680 87.318,48.923 88.216 C 49.462 90.204,49.406 90.478,48.289 91.308 C 41.293 96.504,39.468 97.648,39.023 97.111 C 38.862 96.916,37.691 93.796,37.075 91.917 C 36.954 91.550,36.468 90.162,35.993 88.833 C 35.519 87.504,34.995 86.004,34.829 85.500 C 34.663 84.996,34.141 83.496,33.670 82.167 C 33.199 80.837,32.713 79.450,32.590 79.083 C 32.467 78.717,31.979 77.329,31.506 76.000 C 31.033 74.671,30.508 73.171,30.341 72.667 C 30.173 72.162,29.649 70.662,29.176 69.333 C 28.703 68.004,28.058 66.167,27.742 65.250 C 27.426 64.333,26.942 62.946,26.667 62.167 C 26.391 61.387,25.907 60.000,25.591 59.083 C 25.275 58.167,24.630 56.329,24.157 55.000 C 23.684 53.671,23.162 52.171,22.997 51.667 C 22.501 50.156,21.377 47.038,21.258 46.846 C 20.959 46.362,20.374 46.711,18.984 48.204 C 16.996 50.341,17.065 50.379,15.550 46.333 C 15.327 45.737,15.042 44.950,14.917 44.583 C 14.793 44.217,14.470 43.317,14.201 42.583 C 13.933 41.850,13.220 39.900,12.618 38.250 C 12.017 36.600,11.331 34.767,11.095 34.177 C 10.589 32.909,10.569 32.635,10.958 32.303 C 11.260 32.046,16.204 30.415,22.500 28.497 C 27.249 27.049,33.373 25.629,38.250 24.844 C 41.095 24.385,50.449 24.421,52.250 24.897 M40.583 41.313 C 36.274 42.487,35.807 43.090,36.744 46.265 C 36.985 47.082,37.320 48.237,37.487 48.833 C 37.655 49.429,37.945 50.442,38.133 51.083 C 38.320 51.725,38.526 52.512,38.590 52.833 C 39.052 55.143,39.414 54.951,43.558 50.198 C 47.923 45.193,49.473 42.473,48.511 41.511 C 47.662 40.662,43.366 40.555,40.583 41.313 M82.500 56.828 C 74.659 58.988,70.475 67.325,74.975 71.825 C 77.785 74.634,82.694 75.757,85.640 74.264 C 89.306 72.406,91.966 67.290,91.806 62.405 C 91.727 59.988,91.449 59.900,90.257 61.918 C 87.487 66.605,82.481 68.032,81.414 64.438 C 80.724 62.117,81.403 59.913,83.455 57.808 C 84.745 56.485,84.534 56.268,82.500 56.828 M265.500 56.829 C 256.456 59.322,252.949 68.902,259.552 73.078 C 267.009 77.793,274.712 72.599,274.744 62.833 C 274.753 59.974,274.475 59.712,273.398 61.561 C 269.724 67.864,263.708 68.230,264.220 62.119 C 264.350 60.567,264.948 59.372,266.296 57.969 C 267.737 56.470,267.586 56.254,265.500 56.829 M368.800 57.492 C 362.838 60.091,359.683 66.254,362.037 70.704 C 363.361 73.206,367.165 75.401,370.200 75.412 C 372.000 75.419,371.908 75.640,371.969 71.191 C 372.029 66.894,372.059 67.007,370.671 66.283 C 368.645 65.227,368.385 60.820,370.200 58.314 C 371.123 57.039,370.576 56.718,368.800 57.492 M162.650 63.481 C 157.816 65.059,155.412 70.106,156.764 75.836 C 157.510 78.993,157.330 79.070,161.712 73.706 C 170.191 63.325,169.755 64.023,168.167 63.381 C 166.776 62.819,164.555 62.859,162.650 63.481 M183.068 63.461 C 182.921 63.559,173.825 74.269,168.666 80.417 C 166.538 82.953,166.800 83.330,170.015 82.360 C 173.618 81.274,176.374 79.153,179.003 75.446 C 180.812 72.895,180.478 72.777,184.171 77.266 C 187.796 81.671,187.907 81.638,186.773 76.500 C 186.540 75.446,186.234 74.021,186.093 73.333 C 185.952 72.646,185.680 71.371,185.489 70.500 C 184.845 67.571,184.529 66.089,184.331 65.083 C 184.044 63.617,183.628 63.084,183.068 63.461 M138.913 70.458 C 128.999 78.031,129.717 77.347,130.708 78.275 C 131.636 79.144,143.558 88.050,144.035 88.231 C 144.659 88.466,144.702 88.359,144.400 87.321 C 143.200 83.197,143.141 82.864,143.050 79.667 C 142.943 75.906,143.381 72.886,144.589 69.061 C 145.414 66.450,145.480 66.000,145.042 66.000 C 144.881 66.000,142.123 68.006,138.913 70.458 " stroke="none" fill="#365fa2" fill-rule="evenodd"></path><path id="path1" d="M387.500 10.790 C 387.114 10.920,385.036 11.818,383.842 12.372 C 383.251 12.646,380.439 13.915,377.592 15.191 C 374.746 16.467,372.285 17.667,372.125 17.857 C 371.852 18.182,371.833 19.163,371.833 33.257 C 371.833 46.029,371.798 48.345,371.597 48.546 C 371.428 48.715,370.728 48.810,369.139 48.880 C 360.880 49.242,351.551 55.214,347.157 62.952 C 345.672 65.566,345.434 65.317,345.255 60.966 C 345.193 59.472,345.037 56.820,344.906 55.072 C 344.776 53.325,344.593 50.250,344.499 48.239 C 344.405 46.228,344.221 43.271,344.091 41.667 C 343.960 40.063,343.808 37.625,343.751 36.250 C 343.695 34.875,343.537 32.287,343.401 30.500 C 343.264 28.712,343.097 26.040,343.029 24.560 C 342.868 21.072,342.750 20.918,340.854 21.739 C 340.339 21.962,338.717 22.646,337.250 23.258 C 335.783 23.870,334.171 24.545,333.667 24.758 C 333.162 24.970,331.925 25.490,330.917 25.912 C 329.908 26.335,328.746 26.824,328.333 26.999 C 327.921 27.174,327.021 27.552,326.333 27.838 C 324.592 28.564,323.625 28.985,323.342 29.142 C 322.809 29.437,322.475 30.162,322.254 31.508 C 322.127 32.283,321.909 33.442,321.770 34.083 C 320.599 39.501,320.454 39.315,324.985 38.207 C 326.557 37.823,326.585 37.876,326.734 41.596 C 326.799 43.222,326.960 46.059,327.091 47.901 C 327.472 53.271,327.550 53.121,325.464 51.038 C 321.361 46.940,316.985 44.832,312.583 44.835 C 309.820 44.837,305.598 45.691,301.250 47.128 C 299.235 47.793,299.295 47.805,297.915 46.498 C 296.561 45.217,296.529 45.207,294.667 45.515 C 294.071 45.613,292.683 45.792,291.583 45.913 C 289.619 46.129,287.048 46.458,283.752 46.915 C 281.377 47.244,281.500 46.980,281.500 51.748 C 281.500 56.555,281.527 56.507,279.808 54.793 C 274.643 49.642,265.331 47.712,257.777 50.227 C 251.537 52.305,244.328 58.306,241.658 63.644 C 238.585 69.790,238.509 78.178,241.462 85.434 C 247.695 100.749,267.902 100.275,279.647 84.538 C 281.719 81.762,281.707 81.752,282.170 86.746 C 282.350 88.685,282.569 90.651,282.657 91.114 C 282.745 91.578,282.895 92.721,282.991 93.655 C 283.292 96.592,283.483 96.668,288.667 95.910 C 289.537 95.783,291.150 95.598,292.250 95.499 C 293.350 95.401,294.662 95.249,295.167 95.163 C 295.671 95.078,297.283 94.890,298.750 94.746 C 303.346 94.297,303.089 94.591,302.709 90.222 C 302.249 84.937,302.300 71.973,302.793 68.917 C 304.363 59.180,309.492 57.065,313.660 64.435 C 314.763 66.384,314.676 66.380,317.391 64.600 C 327.714 57.833,327.143 58.162,327.476 58.792 C 327.636 59.094,328.078 65.857,328.252 70.667 C 328.307 72.179,328.419 74.317,328.501 75.417 C 328.584 76.517,328.729 79.217,328.824 81.417 C 328.920 83.617,329.145 88.079,329.324 91.333 C 329.504 94.587,329.737 99.078,329.841 101.312 C 330.115 107.154,329.576 106.675,335.417 106.274 C 337.708 106.116,341.254 105.917,343.296 105.831 C 348.410 105.615,348.092 105.931,347.758 101.385 C 347.624 99.569,347.431 96.546,347.329 94.667 C 347.227 92.787,347.100 90.469,347.047 89.514 C 346.957 87.913,346.972 87.787,347.238 87.889 C 347.397 87.950,347.555 88.000,347.588 88.000 C 347.621 88.000,348.105 88.667,348.663 89.482 C 353.274 96.214,361.986 98.744,370.385 95.789 C 371.528 95.387,371.810 95.532,371.985 96.613 C 372.157 97.671,372.231 97.680,378.083 97.328 C 380.925 97.158,384.578 96.957,386.200 96.884 C 388.242 96.791,389.217 96.683,389.367 96.533 C 389.656 96.244,389.666 68.076,389.380 61.833 C 389.272 59.496,389.104 52.371,389.005 46.000 C 388.499 13.316,388.378 10.494,387.500 10.790 M112.667 22.261 C 110.297 23.281,109.714 23.529,107.583 24.421 C 105.659 25.227,105.468 25.307,101.333 27.053 C 99.912 27.653,98.189 28.369,97.504 28.644 C 95.677 29.376,95.232 29.788,95.005 30.955 C 94.822 31.896,94.446 33.745,93.896 36.417 C 93.317 39.234,93.440 39.411,95.614 38.868 C 99.310 37.944,99.194 37.846,99.354 41.998 C 99.421 43.721,99.558 46.283,99.659 47.691 C 99.968 51.985,100.146 57.867,99.980 58.302 C 99.776 58.840,99.551 58.639,98.655 57.116 C 95.286 51.394,85.868 47.953,77.750 49.479 C 70.426 50.856,61.792 57.295,58.612 63.750 C 53.843 73.432,56.929 88.408,64.750 93.534 C 74.422 99.873,87.997 96.129,96.519 84.772 C 98.373 82.301,99.147 80.856,100.193 77.917 C 100.507 77.036,101.015 76.994,101.189 77.833 C 101.256 78.154,101.392 80.479,101.492 83.000 C 101.592 85.521,101.780 89.196,101.911 91.167 C 102.041 93.138,102.193 96.063,102.247 97.667 C 102.499 105.071,102.646 106.236,103.365 106.486 C 104.316 106.818,120.670 106.729,121.154 106.390 L 121.549 106.113 121.436 103.203 C 121.373 101.603,121.248 99.316,121.157 98.121 C 120.859 94.210,120.681 88.284,120.852 87.966 C 121.115 87.474,121.360 87.591,123.941 89.442 C 125.303 90.419,127.692 92.130,129.250 93.246 C 130.808 94.361,133.733 96.463,135.750 97.916 C 137.767 99.370,139.904 100.908,140.500 101.335 C 141.096 101.762,143.636 103.586,146.144 105.389 C 148.653 107.192,150.849 108.667,151.023 108.667 C 151.556 108.667,151.617 108.048,151.397 104.833 C 151.126 100.854,150.902 96.017,150.968 95.556 C 151.051 94.976,151.437 94.968,152.972 95.513 C 163.107 99.108,179.944 95.752,187.444 88.641 C 188.908 87.252,189.162 87.391,189.655 89.851 C 190.214 92.636,190.514 94.056,190.830 95.417 C 191.001 96.150,191.306 97.537,191.508 98.500 C 192.239 101.977,192.711 103.921,192.874 104.125 C 193.002 104.285,194.447 104.333,199.072 104.333 C 205.866 104.333,205.482 104.407,206.012 103.000 C 206.202 102.496,206.497 101.708,206.668 101.250 C 206.838 100.792,207.213 99.817,207.499 99.083 C 207.786 98.350,208.278 97.055,208.592 96.206 C 210.011 92.366,209.857 92.328,212.859 97.250 C 215.365 101.360,214.531 100.924,219.448 100.692 C 221.723 100.585,224.783 100.391,226.250 100.261 C 227.717 100.131,230.028 99.973,231.387 99.911 C 234.706 99.759,234.645 99.809,234.849 96.995 C 234.932 95.852,235.108 93.942,235.241 92.750 C 235.374 91.558,235.524 89.946,235.575 89.167 C 235.626 88.388,235.816 86.212,235.997 84.333 C 236.566 78.432,236.988 73.802,237.090 72.333 C 237.144 71.554,237.292 70.017,237.420 68.917 C 237.547 67.817,237.696 66.242,237.750 65.417 C 237.804 64.592,237.994 62.417,238.171 60.583 C 238.348 58.750,238.564 56.387,238.651 55.333 C 238.739 54.279,238.929 52.142,239.075 50.583 C 239.816 42.664,239.999 40.633,240.086 39.333 C 240.139 38.554,240.287 37.054,240.415 36.000 C 240.543 34.946,240.729 32.921,240.828 31.500 C 240.928 30.079,241.080 28.429,241.168 27.833 C 241.584 24.992,241.646 25.030,237.167 25.411 C 235.379 25.563,232.192 25.795,230.083 25.926 C 227.975 26.058,225.575 26.237,224.750 26.324 C 223.925 26.411,222.439 26.534,221.448 26.598 C 218.809 26.767,218.901 26.582,218.498 32.583 C 218.400 34.050,218.252 35.737,218.169 36.333 C 218.087 36.929,217.937 38.617,217.838 40.083 C 217.738 41.550,217.550 43.688,217.421 44.833 C 217.292 45.979,217.140 47.629,217.084 48.500 C 217.029 49.371,216.842 51.546,216.670 53.333 C 216.497 55.121,216.274 57.669,216.173 58.995 C 215.885 62.787,215.583 62.942,214.000 60.116 C 213.425 59.090,212.639 57.688,212.253 57.000 C 211.867 56.313,211.229 55.172,210.834 54.467 C 209.652 52.351,209.599 52.383,207.503 56.429 C 205.428 60.434,205.039 60.692,204.647 58.323 C 204.550 57.733,204.360 56.688,204.227 56.000 C 204.093 55.313,203.883 54.112,203.760 53.333 C 203.636 52.554,203.419 51.317,203.276 50.583 C 203.133 49.850,202.865 48.387,202.679 47.333 C 201.060 38.115,201.070 38.161,200.617 37.708 C 200.286 37.377,199.968 37.303,198.243 37.155 C 197.147 37.061,194.900 36.840,193.250 36.665 C 191.600 36.490,189.612 36.302,188.833 36.246 C 188.054 36.190,186.592 36.040,185.583 35.911 C 184.575 35.783,182.550 35.593,181.083 35.488 C 177.836 35.258,177.809 35.244,176.461 33.170 C 175.894 32.297,174.653 30.383,173.704 28.917 C 170.145 23.420,170.781 23.691,166.750 25.949 C 165.283 26.771,163.558 27.729,162.917 28.077 C 162.275 28.426,160.175 29.590,158.250 30.664 C 156.325 31.737,154.087 32.973,153.276 33.410 C 148.782 35.831,148.850 35.110,152.583 40.741 C 154.010 42.893,153.650 42.830,158.792 41.832 C 161.705 41.266,163.826 40.862,166.250 40.412 C 167.533 40.173,169.146 39.866,169.833 39.730 C 170.521 39.594,171.683 39.379,172.417 39.252 C 173.150 39.126,174.244 38.906,174.847 38.764 C 175.451 38.622,176.501 38.486,177.181 38.461 L 178.417 38.417 178.721 39.333 C 178.889 39.837,179.097 40.662,179.185 41.167 C 179.272 41.671,179.487 42.721,179.662 43.500 C 180.610 47.731,180.796 48.595,181.377 51.451 C 181.676 52.924,181.338 53.056,179.167 52.317 C 170.089 49.227,158.228 51.865,150.385 58.719 C 148.956 59.967,148.831 59.999,146.886 59.601 C 146.261 59.473,145.300 59.321,144.750 59.263 C 144.200 59.205,142.850 59.013,141.750 58.836 C 134.078 57.606,135.176 57.600,132.833 58.887 C 131.779 59.467,130.317 60.266,129.583 60.664 C 128.850 61.061,127.332 61.900,126.209 62.527 C 125.087 63.154,124.142 63.667,124.110 63.667 C 124.078 63.667,122.972 64.266,121.651 64.999 C 118.024 67.011,118.232 67.342,117.830 58.917 C 117.734 56.900,117.550 54.012,117.422 52.500 C 117.294 50.987,117.141 48.663,117.083 47.333 C 117.026 46.004,116.871 43.562,116.739 41.906 C 116.606 40.251,116.423 37.363,116.332 35.490 C 116.240 33.616,116.058 30.771,115.928 29.167 C 115.797 27.563,115.642 25.316,115.583 24.175 C 115.424 21.093,115.408 21.082,112.667 22.261 M38.250 24.844 C 33.373 25.629,27.249 27.049,22.500 28.497 C 16.204 30.415,11.260 32.046,10.958 32.303 C 10.569 32.635,10.589 32.909,11.095 34.177 C 11.331 34.767,12.017 36.600,12.618 38.250 C 13.220 39.900,13.933 41.850,14.201 42.583 C 14.470 43.317,14.793 44.217,14.917 44.583 C 16.874 50.324,16.949 50.391,18.984 48.204 C 20.374 46.711,20.959 46.362,21.258 46.846 C 21.377 47.038,22.501 50.156,22.997 51.667 C 23.162 52.171,23.684 53.671,24.157 55.000 C 24.630 56.329,25.275 58.167,25.591 59.083 C 25.907 60.000,26.391 61.387,26.667 62.167 C 26.942 62.946,27.426 64.333,27.742 65.250 C 28.058 66.167,28.703 68.004,29.176 69.333 C 29.649 70.662,30.173 72.162,30.341 72.667 C 30.508 73.171,31.033 74.671,31.506 76.000 C 31.979 77.329,32.467 78.717,32.590 79.083 C 32.713 79.450,33.199 80.837,33.670 82.167 C 34.141 83.496,34.663 84.996,34.829 85.500 C 34.995 86.004,35.519 87.504,35.993 88.833 C 36.468 90.162,36.954 91.550,37.075 91.917 C 37.691 93.796,38.862 96.916,39.023 97.111 C 39.468 97.648,41.293 96.504,48.289 91.308 C 49.406 90.478,49.462 90.204,48.923 88.216 C 48.680 87.318,48.380 86.208,48.257 85.750 C 48.022 84.873,46.680 80.171,46.260 78.750 C 46.003 77.884,45.476 76.039,44.832 73.750 C 44.626 73.017,44.320 71.967,44.154 71.417 C 43.987 70.867,43.729 69.967,43.580 69.417 C 43.432 68.867,43.167 67.892,42.992 67.250 C 42.494 65.433,42.476 65.482,44.292 63.778 C 55.543 53.224,62.215 44.898,64.015 39.167 C 65.853 33.313,60.769 27.147,52.250 24.897 C 50.449 24.421,41.095 24.385,38.250 24.844 M47.552 41.012 C 49.924 41.670,48.860 44.118,43.558 50.198 C 39.414 54.951,39.052 55.143,38.590 52.833 C 38.526 52.512,38.320 51.725,38.133 51.083 C 37.945 50.442,37.655 49.429,37.487 48.833 C 37.320 48.237,36.985 47.082,36.744 46.265 C 35.929 43.505,36.029 43.184,38.000 42.217 C 40.402 41.039,45.386 40.410,47.552 41.012 M84.260 56.683 C 84.323 56.785,83.963 57.287,83.455 57.808 C 81.403 59.913,80.724 62.117,81.414 64.438 C 82.481 68.032,87.487 66.605,90.257 61.918 C 91.449 59.900,91.727 59.988,91.806 62.405 C 91.966 67.290,89.306 72.406,85.640 74.264 C 82.694 75.757,77.785 74.634,74.975 71.825 C 71.488 68.338,73.185 62.004,78.511 58.628 C 80.667 57.261,83.934 56.156,84.260 56.683 M267.257 56.678 C 267.317 56.775,266.885 57.357,266.296 57.969 C 264.948 59.372,264.350 60.567,264.220 62.119 C 263.708 68.230,269.724 67.864,273.398 61.561 C 274.475 59.712,274.753 59.974,274.744 62.833 C 274.720 70.160,269.798 75.704,264.073 74.853 C 255.853 73.630,253.485 66.012,259.527 60.230 C 261.781 58.073,266.717 55.805,267.257 56.678 M370.633 57.363 C 370.662 57.517,370.467 57.945,370.200 58.314 C 368.385 60.820,368.645 65.227,370.671 66.283 C 372.059 67.007,372.029 66.894,371.969 71.191 C 371.930 74.027,371.862 75.039,371.700 75.200 C 371.327 75.571,369.092 75.466,367.750 75.014 C 360.652 72.624,359.107 66.124,364.325 60.604 C 366.394 58.415,370.438 56.337,370.633 57.363 M168.167 63.381 C 169.755 64.023,170.191 63.325,161.712 73.706 C 157.330 79.070,157.510 78.993,156.764 75.836 C 155.891 72.136,156.435 69.284,158.598 66.229 C 160.450 63.612,165.225 62.191,168.167 63.381 M183.897 63.708 C 184.028 63.915,184.224 64.533,184.331 65.083 C 184.529 66.089,184.845 67.571,185.489 70.500 C 185.680 71.371,185.952 72.646,186.093 73.333 C 186.234 74.021,186.540 75.446,186.773 76.500 C 187.907 81.638,187.796 81.671,184.171 77.266 C 180.478 72.777,180.812 72.895,179.003 75.446 C 176.374 79.153,173.618 81.274,170.015 82.360 C 167.785 83.033,166.922 82.948,167.365 82.099 C 167.573 81.700,167.562 81.713,176.335 71.333 C 183.907 62.375,183.385 62.902,183.897 63.708 M145.333 66.352 C 145.333 66.546,144.999 67.765,144.589 69.061 C 143.381 72.886,142.943 75.906,143.050 79.667 C 143.141 82.864,143.200 83.197,144.400 87.321 C 144.702 88.359,144.659 88.466,144.035 88.231 C 143.558 88.050,131.636 79.144,130.708 78.275 C 129.717 77.347,128.999 78.031,138.913 70.458 C 144.650 66.076,145.333 65.639,145.333 66.352 " stroke="none" fill="#fce334" fill-rule="evenodd"></path></g></svg>