<svg id="svg" version="1.1" xmlns="http://www.w3.org/2000/svg" xmlns:xlink="http://www.w3.org/1999/xlink" width="400" height="400" viewBox="0, 0, 400,400"><g id="svgg"><path id="path0" d="M191.625 41.772 C 99.816 46.594,31.524 128.191,42.770 219.625 C 53.326 305.446,131.463 367.092,217.500 357.479 C 305.359 347.662,368.035 268.222,357.230 180.375 C 347.099 98.010,274.692 37.409,191.625 41.772 M211.125 58.762 C 275.063 64.076,327.529 111.257,339.233 173.962 C 340.343 179.910,341.657 191.260,341.279 191.638 C 341.217 191.700,320.503 191.750,295.247 191.750 L 249.328 191.750 248.880 189.563 C 245.161 171.420,230.739 156.342,212.591 151.622 C 185.189 144.495,156.761 162.041,151.120 189.563 L 150.672 191.751 104.648 191.688 L 58.625 191.625 58.698 190.125 C 59.931 164.764,70.392 136.758,86.748 115.026 C 112.584 80.699,150.821 60.628,194.625 58.399 C 197.392 58.258,207.828 58.488,211.125 58.762 M205.865 167.152 C 222.547 169.881,234.818 185.915,233.236 202.916 C 230.614 231.093,196.373 243.531,176.479 223.534 C 153.475 200.411,173.564 161.867,205.865 167.152 M196.875 183.651 C 177.445 188.351,180.123 216.500,200.000 216.500 C 216.507 216.500,222.734 194.745,208.750 185.933 C 205.732 184.032,199.920 182.914,196.875 183.651 M150.851 208.813 C 153.297 221.314,159.912 232.201,169.492 239.494 C 199.402 262.262,241.892 245.897,249.149 208.813 L 249.260 208.250 295.400 208.250 L 341.540 208.250 341.397 209.813 C 340.860 215.696,340.660 217.504,340.216 220.500 C 328.569 299.084,254.863 352.782,176.548 339.738 C 116.190 329.686,68.583 281.108,59.761 220.569 C 59.308 217.460,58.500 209.860,58.500 208.710 C 58.500 208.265,60.009 208.250,104.620 208.250 L 150.740 208.250 150.851 208.813 " stroke="none" fill="#34444c" fill-rule="evenodd"></path><path id="path1" d="M194.625 58.399 C 150.821 60.628,112.584 80.699,86.748 115.026 C 70.392 136.758,59.931 164.764,58.698 190.125 L 58.625 191.625 104.648 191.688 L 150.672 191.751 151.120 189.563 C 156.761 162.041,185.189 144.495,212.591 151.622 C 230.739 156.342,245.161 171.420,248.880 189.563 L 249.328 191.750 295.247 191.750 C 320.503 191.750,341.217 191.700,341.279 191.638 C 342.028 190.889,339.496 174.008,337.352 165.462 C 321.184 101.005,259.956 55.076,194.625 58.399 " stroke="none" fill="#f73904" fill-rule="evenodd"></path><path id="path2" d="M196.750 166.892 C 196.406 166.952,195.281 167.125,194.250 167.276 C 177.121 169.778,164.458 187.266,167.114 204.750 C 171.356 232.681,206.115 243.082,224.842 222.024 C 241.695 203.073,231.740 172.847,206.875 167.472 C 204.720 167.007,198.220 166.634,196.750 166.892 M205.213 184.140 C 218.473 188.544,220.798 206.161,209.148 213.952 C 200.059 220.032,187.545 215.598,184.097 205.076 C 179.889 192.239,192.363 179.871,205.213 184.140 M58.852 211.063 C 63.772 283.832,125.979 341.311,199.875 341.367 C 216.048 341.380,223.018 340.427,228.134 337.505 C 274.958 310.766,303.743 264.987,308.109 210.313 L 308.253 208.500 278.752 208.500 C 250.822 208.500,249.250 208.523,249.249 208.938 C 249.246 211.409,246.047 220.256,243.618 224.511 C 225.443 256.364,180.800 258.830,159.337 229.167 C 155.382 223.700,150.757 212.803,150.751 208.938 C 150.750 208.522,148.391 208.500,104.714 208.500 L 58.679 208.500 58.852 211.063 " stroke="none" fill="#f5f7f7" fill-rule="evenodd"></path><path id="path3" d="M199.438 166.676 C 199.747 166.736,200.253 166.736,200.563 166.676 C 200.872 166.617,200.619 166.568,200.000 166.568 C 199.381 166.568,199.128 166.617,199.438 166.676 M199.313 183.429 C 199.691 183.486,200.309 183.486,200.688 183.429 C 201.066 183.372,200.756 183.325,200.000 183.325 C 199.244 183.325,198.934 183.372,199.313 183.429 M188.113 188.313 L 187.125 189.375 188.188 188.387 C 189.176 187.468,189.365 187.250,189.176 187.250 C 189.135 187.250,188.657 187.728,188.113 188.313 M211.625 188.250 C 212.162 188.800,212.658 189.250,212.726 189.250 C 212.795 189.250,212.412 188.800,211.875 188.250 C 211.338 187.700,210.842 187.250,210.774 187.250 C 210.705 187.250,211.088 187.700,211.625 188.250 M166.575 200.000 C 166.575 200.756,166.622 201.066,166.679 200.688 C 166.736 200.309,166.736 199.691,166.679 199.313 C 166.622 198.934,166.575 199.244,166.575 200.000 M183.325 200.000 C 183.325 200.756,183.372 201.066,183.429 200.688 C 183.486 200.309,183.486 199.691,183.429 199.313 C 183.372 198.934,183.325 199.244,183.325 200.000 M216.575 200.000 C 216.575 200.756,216.622 201.066,216.679 200.688 C 216.736 200.309,216.736 199.691,216.679 199.313 C 216.622 198.934,216.575 199.244,216.575 200.000 M233.325 200.000 C 233.325 200.756,233.372 201.066,233.429 200.688 C 233.486 200.309,233.486 199.691,233.429 199.313 C 233.372 198.934,233.325 199.244,233.325 200.000 M324.671 208.437 L 341.217 208.504 341.321 209.189 C 341.418 209.825,341.428 209.816,341.463 209.063 L 341.500 208.250 324.813 208.311 L 308.125 208.371 324.671 208.437 M58.558 209.500 C 58.558 209.981,58.609 210.178,58.672 209.938 C 58.735 209.697,58.735 209.303,58.672 209.063 C 58.609 208.822,58.558 209.019,58.558 209.500 M188.000 211.625 C 188.466 212.106,188.904 212.500,188.973 212.500 C 189.042 212.500,188.716 212.106,188.250 211.625 C 187.784 211.144,187.346 210.750,187.277 210.750 C 187.208 210.750,187.534 211.144,188.000 211.625 M211.609 211.813 L 210.875 212.625 211.688 211.891 C 212.134 211.487,212.500 211.121,212.500 211.078 C 212.500 210.885,212.294 211.055,211.609 211.813 M199.313 216.679 C 199.691 216.736,200.309 216.736,200.688 216.679 C 201.066 216.622,200.756 216.575,200.000 216.575 C 199.244 216.575,198.934 216.622,199.313 216.679 M199.438 233.426 C 199.747 233.486,200.253 233.486,200.563 233.426 C 200.872 233.367,200.619 233.318,200.000 233.318 C 199.381 233.318,199.128 233.367,199.438 233.426 M99.750 300.125 C 101.327 301.706,102.673 303.000,102.742 303.000 C 102.811 303.000,101.577 301.706,100.000 300.125 C 98.423 298.544,97.077 297.250,97.008 297.250 C 96.939 297.250,98.173 298.544,99.750 300.125 M299.996 300.188 L 297.375 302.875 300.063 300.254 C 301.541 298.813,302.750 297.604,302.750 297.567 C 302.750 297.386,302.430 297.691,299.996 300.188 M190.063 341.422 C 190.303 341.485,190.697 341.485,190.938 341.422 C 191.178 341.359,190.981 341.308,190.500 341.308 C 190.019 341.308,189.822 341.359,190.063 341.422 M209.063 341.422 C 209.303 341.485,209.697 341.485,209.938 341.422 C 210.178 341.359,209.981 341.308,209.500 341.308 C 209.019 341.308,208.822 341.359,209.063 341.422 M195.188 341.681 C 195.634 341.736,196.366 341.736,196.813 341.681 C 197.259 341.625,196.894 341.580,196.000 341.580 C 195.106 341.580,194.741 341.625,195.188 341.681 M203.188 341.681 C 203.634 341.736,204.366 341.736,204.813 341.681 C 205.259 341.625,204.894 341.580,204.000 341.580 C 203.106 341.580,202.741 341.625,203.188 341.681 " stroke="none" fill="#8b9499" fill-rule="evenodd"></path><path id="path4" d="M58.664 208.438 C 58.559 208.607,90.037 208.606,134.250 208.436 C 143.394 208.400,130.154 208.344,104.827 208.311 C 79.501 208.277,58.727 208.334,58.664 208.438 M278.814 208.417 L 308.253 208.502 308.109 210.314 C 303.743 264.981,275.198 310.422,228.250 337.438 C 226.256 338.586,224.906 339.465,225.250 339.393 C 225.594 339.321,227.731 338.859,230.000 338.367 C 287.499 325.898,331.673 278.613,340.110 220.503 C 340.772 215.942,341.436 208.853,341.222 208.638 C 341.152 208.568,320.458 208.471,295.235 208.422 C 270.012 208.372,262.623 208.370,278.814 208.417 M164.500 235.375 C 164.966 235.856,165.404 236.250,165.473 236.250 C 165.542 236.250,165.216 235.856,164.750 235.375 C 164.284 234.894,163.846 234.500,163.777 234.500 C 163.708 234.500,164.034 234.894,164.500 235.375 M235.237 235.438 L 234.375 236.375 235.313 235.513 C 235.828 235.040,236.250 234.618,236.250 234.576 C 236.250 234.385,236.038 234.565,235.237 235.438 M198.688 341.684 C 199.409 341.735,200.591 341.735,201.313 341.684 C 202.034 341.634,201.444 341.592,200.000 341.592 C 198.556 341.592,197.966 341.634,198.688 341.684 " stroke="none" fill="#b9c1c2" fill-rule="evenodd"></path></g></svg>